<mxfile host="app.diagrams.net" modified="2024-06-01T15:02:55.711Z" agent="Mozilla/5.0 (Windows NT 10.0; Win64; x64) AppleWebKit/537.36 (KHTML, like Gecko) Chrome/125.0.0.0 Safari/537.36" etag="Vd-XwlDoIq4gorWQAX1E" version="24.4.13" type="device">
  <diagram id="R2lEEEUBdFMjLlhIrx00" name="Page-1">
    <mxGraphModel dx="1173" dy="1696" grid="1" gridSize="10" guides="1" tooltips="1" connect="1" arrows="1" fold="1" page="1" pageScale="1" pageWidth="850" pageHeight="1100" math="0" shadow="0" extFonts="Permanent Marker^https://fonts.googleapis.com/css?family=Permanent+Marker">
      <root>
        <mxCell id="0" />
        <mxCell id="1" parent="0" />
        <mxCell id="NwccE2FBPC4-gikAn3eB-13" value="" style="rounded=1;whiteSpace=wrap;html=1;" vertex="1" parent="1">
          <mxGeometry x="240" y="-1030" width="170" height="90" as="geometry" />
        </mxCell>
        <mxCell id="NwccE2FBPC4-gikAn3eB-12" value="" style="verticalLabelPosition=bottom;html=1;verticalAlign=top;align=center;strokeColor=none;fillColor=#00BEF2;shape=mxgraph.azure.mobile;pointerEvents=1;" vertex="1" parent="1">
          <mxGeometry x="362.5" y="-1010" width="30" height="50" as="geometry" />
        </mxCell>
        <mxCell id="NwccE2FBPC4-gikAn3eB-14" value="Mobile app" style="text;html=1;align=center;verticalAlign=middle;whiteSpace=wrap;rounded=0;" vertex="1" parent="1">
          <mxGeometry x="287.5" y="-1070" width="75" height="30" as="geometry" />
        </mxCell>
        <mxCell id="NwccE2FBPC4-gikAn3eB-15" value="" style="verticalLabelPosition=bottom;html=1;verticalAlign=top;align=center;strokeColor=none;fillColor=#00BEF2;shape=mxgraph.azure.database;" vertex="1" parent="1">
          <mxGeometry x="550" y="-1008" width="37.5" height="50" as="geometry" />
        </mxCell>
        <mxCell id="NwccE2FBPC4-gikAn3eB-16" value="" style="endArrow=classic;startArrow=classic;html=1;rounded=0;exitX=1;exitY=0.5;exitDx=0;exitDy=0;entryX=0;entryY=0.5;entryDx=0;entryDy=0;entryPerimeter=0;" edge="1" parent="1" source="NwccE2FBPC4-gikAn3eB-13" target="NwccE2FBPC4-gikAn3eB-15">
          <mxGeometry width="50" height="50" relative="1" as="geometry">
            <mxPoint x="480" y="-1020" as="sourcePoint" />
            <mxPoint x="530" y="-1070" as="targetPoint" />
          </mxGeometry>
        </mxCell>
        <mxCell id="NwccE2FBPC4-gikAn3eB-17" value="Story DB" style="text;html=1;align=center;verticalAlign=middle;whiteSpace=wrap;rounded=0;" vertex="1" parent="1">
          <mxGeometry x="538.75" y="-1040" width="60" height="30" as="geometry" />
        </mxCell>
        <mxCell id="NwccE2FBPC4-gikAn3eB-21" value="" style="image;aspect=fixed;html=1;points=[];align=center;fontSize=12;image=img/lib/azure2/identity/Users.svg;" vertex="1" parent="1">
          <mxGeometry x="256" y="-1009.07" width="44" height="48.13" as="geometry" />
        </mxCell>
        <mxCell id="NwccE2FBPC4-gikAn3eB-25" value="&lt;strong style=&quot;color: rgb(17, 17, 17); font-family: -apple-system, Roboto, SegoeUI, &amp;quot;Segoe UI&amp;quot;, &amp;quot;Helvetica Neue&amp;quot;, Helvetica, &amp;quot;Microsoft YaHei&amp;quot;, &amp;quot;Meiryo UI&amp;quot;, Meiryo, &amp;quot;Arial Unicode MS&amp;quot;, sans-serif; font-size: 14px; text-align: left; background-color: rgb(243, 243, 243);&quot;&gt;Azure Database for MySQL&lt;/strong&gt;" style="text;html=1;align=center;verticalAlign=middle;whiteSpace=wrap;rounded=0;" vertex="1" parent="1">
          <mxGeometry x="538.75" y="-935" width="60" height="30" as="geometry" />
        </mxCell>
        <mxCell id="NwccE2FBPC4-gikAn3eB-26" value="" style="endArrow=classic;startArrow=classic;html=1;rounded=0;entryX=0;entryY=0.5;entryDx=0;entryDy=0;entryPerimeter=0;fontColor=#3399FF;" edge="1" parent="1" target="NwccE2FBPC4-gikAn3eB-12">
          <mxGeometry width="50" height="50" relative="1" as="geometry">
            <mxPoint x="300" y="-985" as="sourcePoint" />
            <mxPoint x="820" y="-1070" as="targetPoint" />
          </mxGeometry>
        </mxCell>
        <mxCell id="NwccE2FBPC4-gikAn3eB-27" value="" style="shape=image;verticalLabelPosition=bottom;labelBackgroundColor=default;verticalAlign=top;aspect=fixed;imageAspect=0;image=data:image/png,iVBORw0KGgoAAAANSUhEUgAAA5oAAAJQCAIAAABgk4y6AACAAElEQVR42uzdC1xVdb738U6J+zi8HNOYhmkcapgcc3g6HR/ndKij5qvjk/U4nsZR5/Ew8+I4jlmUGWhGkimZkYOJlmOGXFREQlLxgjLmJUVEARW8kBdMEfEGhBcgRYT/81v8abndewNbU2HD5/36vXCxXGvtvdZe+7++a7H2/t9zHwAAAOCa7hHyjwIAAABcEHEWAAAAxFkAAACAOAsAAAAQZwEAAECcBQAAAIizAAAAAHEWAAAAIM4CAACAOAsAAAAQZwEAAADiLAAAAIizbAgAAAAQZwEAAADiLAAAAECcBQAAAHEWAAAAIM4CAAAAxFkAAACAOAsAAADiLAAAAECcBQAAAIizAAAAIM4CAAAAxFkAAACAOAsAAAAQZwEAAECcBQAAAIizAAAAAHEWAAAAIM4CAACAOAsAAAAQZwEAAADiLAAAAIizAAAAAHEWAAAAIM4CAAAAxFkAAAAQZwEAAADiLAAAAECcBQAAAHGWOAsAAADiLAAAAECcBQAAAIizAAAAIM4CAAAAxFkAAACAOAsAAAAQZwEAAECcBQAAAIizAAAAAHEWAAAAxFkAAACAOAsAAAAQZwEAAADiLAAAAIizAAAAAHEWAAAAIM4CAAAAxFkAAAAQZwEAAADiLAAAAECcBQAAAHEWAAAAIM4CAAAAxFkAAACAOAsAAADiLAAAAECcBQAAAIizAAAAAHEWAAAAxFkAAACAOAsAAAAQZwEAAECcBQAAAIizAAAAAHEWAAAAIM4CAACAOAsAAAAQZwEAAADiLAAAAIizxFkAAAAQZwEAAADiLAAAAECcBQAAAHEWAAC0abW1tZWVlSUlJWfOnDkNtADFxcUVFRWyZxJnAQBAE65duybRgfyElhlqZf8kzoJzbty2M2MArfIYYWZZOUzs3btv8eL48PDwUKB5TJ85c+H27VnWByN9JCLOcs4N3IYzYwCtT2VlpZll16xJmT179vbtO0pLz1dXq6tXVVWVUVeuqMuXjfruO5leVVQYVV5u1KVL6uJFdeGCUefPq7Iyo779VpWWqpISo4qLjTp3Tp09q86cMer0aXXqlFFFRerkSVVYaNSJE0YVFKjjx9WxY0Z98406etSo/Hx15Ig6fNioQ4eMOnhQff21yssz6sABtX+/Ufv2qb17VW6uUTk5Ru3Zo3bvVrt2GZWdbVRWlsrMVDt3GrVjh8rIMGr7dpWerrZtMyotzaitW9WWLeqrr4zavFlt2mTUxo1qwwb15ZdGrV9v1D/+oVJT1bp1Rq1dq1JSjFqzRq1erVatMmrlSqOSk9WKFWr5cqOWLVNffGFUUpJRiYlGff65UQkJaskSFR9v1OLFKi7OqEWLjFqwwKjYWKNiYlR0tIqKMmr+fBUZadRnnxk1b5769FM1d65Rf/+7UZ98YtTHHxs1e7aaNcuoiAg1c6b66COjZsww6m9/M2r6dKM+/FCFhRn1wQdq2jT1/vtGTZ1qVGioUVOmGDV5snr3XaMmTVLvvKNCQoyaONGo4GCj3nrLqAkT1JtvGjV+vBo3TgUFGRUYaNTYsUa9/rpRY8ao114z6tVX5Wf5uHHZoaGfLFq09MSJE3rnrJAdjjjLOTfn3LgtZ8YAWp+SkhJ9jEhJSVm0KK6y8rKcwEoRZ4mzzRJnAwLUK6/Iz8uTJy9JSFhqHoaIs5xz255zmy2Uw+ZJt026edJtkzRMZtukGyZplXTDpFslaZLMVkk3SdIe6SbJvj2yb4zMlkjKbIl0M6RbIt0MSRukmyH7Nsi+AXLY+tg3PTbtjn2jY9Pi6OZGtzi6udFtzcKF19saaWh0W2Pd0EgrI2W2MnPmXG9ldBMj7YvZxNi0L/aNi25Z3nvvesvisFl5+23bNkUaFCmzQXnjjesNim5NpCkZM6bBM2MArY9+j+/bt0+OEZJla2oUcZY42+xxVifasLDZmZmZehclznLOXX/OXVFx2aaFIs4SZ+3jrG5NHJ4ZA2itcXbJkiUZGTskyxJnibMtJM6+/LI8Sm5MTAxxlkbqhnNu+xaKOEucbSjOOjwzBtBajxTh4eFlZeeJs8TZFhVnAwLKw8LCiLM0UjeccxNnibM3FWftz4wBtNYjRWhoaG2tOl1cnppxZF3G0XU7C9buPLk263RK1rmU7JI2FWfnz8/y9n68XTs3i6UDcbZ546yU7JnEWRqpG865ibPE2ZuNszZnxgBad5xN3VMSuqn0o/Tz0bvLVxy8nHbi2r7i2t+8kd6m4myPHk9Kapo/fxdXZ4mzaInn3Ou2G+fca3cY59wpmcY595qsEuIscbaROGvTlABo3UeK/Xl7o786HL3laPTWguhtJ6O2n47KOPfuzA/bVJy99977JDVxswFxFq50zk2cJc4SZwGOFPpIUXB0d1557bkqZV1Lol51oTh7T51+/V5s397y8597JyTk6Dirx7/99ryHH+7erp2bHEq++qpy2LDXf/SjjvJr9+695s/PkqPJPTeSo0lqauXgwfWTdevWa86cLH1A0ROMGTOva1djgXJMWb68ctCg1zt06HjffW6/+lWvjz7K0nFWTzls2GT5rx/9qNMbbyTog8uiRReffXaUxeIu0z/4oLc+vsTGVj733Ov//M/GQh55pFdoaJaOs+++u/PRR5+Wke3aWbp08SLOgnPuG865ibPEWeIswJFCHynyj+RKnC25qkqrVOlVVVL387M5410uzm7cePbTT9fLwP/+332t46xJDiW/+91IGViyJG/58gIZePjhHvpooicwjyYvvGBMFhubt2SJMZmXVw/rOGuSY8r/+T/GlJ9+mhcdbUzZtWsP6zgbGVn46affyMD993vqg0u/fiPk17/8ZY711dlnnjEWMn16XkSEsZCHHuqh4+yPf/yg/Dp79lmuzhJnOed2cM7t0nFWtxH2DdCnn+708XlaTpfd3CwPPuil4+zq1ZUvvmicN8v4Rx/tNWtWlo6zesaAgHk//3l3OfGVODt9+s7u3Y2TYJndw8OLOEucBdrIkeLrrw/IkeJStTLrYrUKmz7F5eKsvtlABiyWDtZxdsOGUvNmA2nhrfPovffe5zDO2k9mHWeXLi01L5HYT2kdZ/WFEj2s46ye/vPPa6zjrP1CdJz18HhEfv35z32eeWb01Kl5xFlwzn3DOXerjLP332+cxS5bdtb66uyAASPrzo/zFi40Tnl/8Yse1nHWJHG2Uydj9ujos1ydJc4CbepIkbv/UF65unKtvqqkatSEyeGuGGd3766xj7PW987q4JieXmNz76zDOLtxY43Nn/v0ZNZ/8dNTrl5dY3Pv7C3E2bi4Gpt7Z6dN2//00/4/+Ym3/G/nzl2Js+Cc+4Zz7lYZZz09jbPYRx7xGThwdHR0nm597E95reNsfHypebPBgw8+Upd3ffr3Hx0RkUecJc4CbeRIsSv3yCtvfRIQfEPJGJeLs5Jlp02Lk4Hf/c6/oTg7cKDxt/4pU+Ilzq5YUfjUUwMdxtnnnzcmCwmJlzibkFD47/8+sKE427+/MeX48fESZ2NiCn/724GNx9k+ff4sw3/96zzrONu374i6PxjGy/Fl9uzCJ54YaP1RsDlzyuR/O3XyJM6Cc+4bzrlbZZyNjd3/3HP+P/uZcRb7k590tY6z69bV2Nw7q2e0vnd21qz9/fr5//SnxuwPPNCVOEucBdrIkaIVdKOgm/QePXq1a+f27//ef/Pm0obi7ObN5f/93+MfeMBTpvTx8Q0OjnYYZ9euLR82bHyXLsZkPXr4jhsX3VCcXbasfPDg8Z07e953n1v37r5jxkQ3HmcXLCj7z/8cbbG433vvfT/5ySP6+BIdXf5//+94CayykEcf9R05MlrH2Z/8xLtdO4uM9PLqGRycRpwF59w3nHO7dJyVZqjuLzX5y5YV2jRAmzZJI2KcxUobpOPsc88Zp7xvvRUv7c6iRYX/9m8DG4qzutFZtKhM37NPnCXOAsRZV7x3ll7BiLNohY1U6+tGYcqU+I4dO//oRx3/8pdQ6zj7s595u7lZ6j7y1TMiIk23PitXlg8ZYpw3y/jHHvN9443ohuLsT39qzC4nwb/8Zc/33ksjzhJnAeKsq8TZ9u0tUsRZ4iyIs3xRF1/URZwFiLMuGWd/eDcKxFniLIizxFniLADiLHGWOEucBXGWOEucBUCcJc4SZ4mzIM4SZ4mzAJw8UgAtE3GWRoo4S5wlzgJw6kjBpkALRJwF59y4zWfGAIizAHEWNFJw4aYEAEcKgDgLGikQZwFwpACIs6CRAnEWAEcKEGdBIwXctTibmprq4eHRoUMH3SS5+maxXh2AI4WpFby7QZwFcRbEWcd8fHyysrJazQHPenWAVnWk2PBHtfGPTWZWrY3H2Ua2A/meOAvOudEK46zFYmlN+5L16gCt50jxTZJStUqtVDv+ZAybVXHSySNCWztSNLm+HDqJs+CcmzPjVhJn77Fi/aLMmDFj6tSpTr585nBCQoKnp6cEyuHDh+sxxcXFAwYMkDHe3t7p6enW048cOdLNza2R5U+YMKFDhw5eXl67du1yOKP9wm1Wx5lHb2ga2bweHh6dOnWKj4/XI8vKyvz9/eUp+fj4bNmypaF57TfCnd6ATj4iXD/ORqrIf1KqbkB9Vl8bf9vIriX7T//+/WU/6dmzZ1uOs/bvaGfaCj1Stl6vXr3MqHbLbRpxFpxzu+Q5N2fGLhFnHeaq6Ojo4ODgm51LuLu7FxUVVVdXz507V4+RgLVmzRoZyMrKkhRoTh8ZGSmTNb78VatW6SfTu3dvhzM2tHBzIc48ekPTLFy4sKamJiMjQ5KiHinHKlkvGSnHs1GjRjU0r/1GuNMb0MlHhOsfKT5T39yjzt2jNtSVukdtvEftDWxk15L9JyQkRHZaWU4bj7P27+gm2wo/Pz9pCWWuwsJCc+JbbtOIs+Cc2yXPuTkzdtE4m5ycrLPaLcRZX1/fwYMHJyYmlpeX6zHySpkvtPkiOrPHmtPIscT8XJfNjE0u3JlHb3Iac1imlCfT5Lz2G+FOb0AnHxGufaQ4m2FkWam9M41fN/5R7euqamsb37Vk/zEzVhuPs/bDTbYVMrKqqsq+Hbi1No04C865XfKcmzNjF42zI0aMePzxx8vKym7hUCFNf1JSkrxwTzzxhP3xwOG8TS5fXtZG4mzjC3fm0ZucpvE4az+v/Ua40xvQyUeEax8pDLV1pQdrHWZZm91DzvDNnZY423ictX+jOdx6t9ymEWfBObdLnnNzZuyicVZ+ylnHkCFDGp9LTkvS09OlrY+NjTWXMG3aNHnJ5Cm5u7vrMcOGDZNzEtlXJR8HBATcVJyV5cjyZXZZiMMZm1y4M4/e5DTmsEyp/7Zg3mzgcF77jXCnN6CTjwjXj7M3/Y7u16+fnOqrui+wI87aDHt5eeXn5zfyRuvdu7e8PWVg/fr11u3ArbVpxFlwzu2S59ycGbtunBUHDx6UkNTIXBLsOnfu3LFjR3ka5lz+/v7yAklQMz8+JclPWn8Z2a1bt4SEhJuKs08++aTsA88++6wsxOGMTS7cmUdvchpzWKYcPny4ntLMtfbz2m+EO70BnXxEtIU4a/Mx3Ly8vO7du8vuERQU1Ja/qMvhOzo5ObljnYbeaDk5Od7e3jJSTl/NO9luuU0jzoJGyiXPuTkzdpU42/KvrAAcKdCM0tLSuJOHOIu2eM7NmXGribMWR+7C8lvN18fe6Q0IjhS4c7p27Spv2B49emRkZLA1iLOgkeLM2FXjLACOFABxFjRSnBkTZwFwpABxFjRSAHEW4EjhtNt+F5bzC2ytN4D9kPUKCwsbMWLEbXkashz9hZX28osPpxVs3mpVacc2l1+5RJwFcRbEWQDEWZeJsBL1XnjhBesx8qvuZdBJO3fuHDBgQIcOHXRfRea8t7yOZWVlXl5eZkcnSUlJvr6+Foule/fuycnJ5sJtOhhqaKQsp0ePHvbdpkiWHbC4z8iMMYEHp+kaeyB0aMrQievGEWdBnOXMuOWeGZtt3DPPPKNHyoA5csqUKXqkDDCSkY2MFK+88kpUVBSNDHG2FcTZmpqazp07l5aW6l9lQH616QOlEenp6Z6enhJha+qkpaW9/vrrP3Ad58yZExISYv46fPjww4cP65irPw/d0MIbekRZmvlhaJMcfXSWzbn09YxjUXpAfr64/HfEWRBnOTN2gTNj4AfKycl57LHHSLSufqRw2P+5w77BJQxJaJOREq3MdtLf318aXh8fny1btii7/sOtG8YJEybIlNKu7tq1S9n1W25OWVhYqL9AWn4WFRWZs9t0e37bjR49et68eXpYBqw77tYfyXjwwQfNh7ZZzX79+pnHBftw6fCZN7nMIUOGSCx2GJ1ly9xCnJUZ//znP9uM3FqwOfBAaND212T44pULIeljZSAoa/zQlCHEWRBnOTN2gTNj4IfLzs5+9NFH2Q4ufaRw2P+5w77B3d3dJV9WV1fPnTtXj5HsJcMyr9nvnU3/4dZxVl9liI6O7t27t31raQ4PGjRo1qxZMjBz5kzzMofDbs9vL4njffv21cMST3U6v+HqQ36+deNvvZr23Vlbr1cjz7yRZUretV/m5cuXBw8eLInfnEWyr5wkPPvss3l5eY2MVHW9f9t/4Y/E2aBtAeO2vCTDB0r3Jh2Ok4HxW0YPXTGQOIuW0kjd1Emh5D9pquR9FRYWJiepMmw9l8Mzdc6MXfrMGLgtrG8/gCseKRz2f+6wb3BfX1/JUomJieYfmuxjnE0DaP9V4jK9JK1G4qy5TPlpfuNyQ53s3F5yXNAb8KGHHjJH7t+/f9iwYZJE5Wk7/Gb0JuOs/bAzyzS/Ot2aHBnPnj1rM7Kqqurjjz/u0aNHkyPNLX89xB/bJFlWx9mJ28acKi/UcXbI0ueJs2hBcdb5k8LY2FiZUk7EZe/Sc+3cudOcy+GZOmfGLn1mDBBnOVKom+kbXMYkJSX5+fmZTdktxFlpCZ2Ps41PeduNHz9+Vh0ZMEc+8sgj8+bNu3jxomqgx3UhB6/ly5c7H2edWaZEapttK1t+w4YNDh/FOvo3NNLhMWjD3tSg7+OsHHpWH/1CDzw/qw9xFi0ozt7CSWFD7Yv9mTpnxi59ZgzcFvQt7OpHCof9nzvsG3zatGnSssny3d3dzcn0H7isbzZoKM7KjNJQy2JlLj3Sut9y65sN5IFkYMaMGQMHDrybcTYnJ8fX1/fpp5/Wd/dqHTt2PHz4sDzzVatWNXS8kJT54IMPStbXN7zt3Lmz8WfuzDKHDBli/bdQ+VVvFmt//vOfCwsLZTmyrfr379/ISFXXu5D9XwjT87b+Ifa/5Bgkxx19MNIDg8KfI86iRcfZJk8KG4qz9mfqnBm79JkxQJzlSKEa6P/cYd/g/v7+MsbT09P6PrThw4fryfTIRuKs/oDXs88+K3Ppkdb9lptTFhUVSaaUKSVWWn8U7O7sct3rWI+Ji4uTZ9ipU6eQkJCGjhdi8+bNcmIgm0J/qG769OmNPHNnlmnz+Q2HHzKWbf74449LJhwwYIDZsDscqRr4/Mblqu/Cl30wYHrf/h8+ZZZk2Z2HthNn0aLjbJMnhQ6HHZ6pc2bs0mfGAHG2tR4pwsPDz58/X1urzJJzc6lr1+qrurq+rl69oaqqjLpypb4uX66v7767oSorjaqoqK/y8vq6dKm+Ll68XhcuGCX7yfnzSldZWX19++31Ki2tr5KS+pLQq+vcufo6e/aGOnPGKGnPdJ06VV+SgXWdPHm9Cgvr68SJ+iooqK/jx6/XsWP19c039XX0aH3l59fXkSPX6/Dh63XokFEHD9bX119fr7y863XggFH799fXvn31tXfvDZWWVubp6ZWefjEnR+nas8eo3bvrS46TZmVnX6+sLKMyM+tr506jvvqq/JFHemzeXL5jh9KVkWHU9u31JYc7Xdu23VBpaUZt3VpfW7bU11df3VCbNxu1aVN9bdxYXxs21NeXX8r4i2FhYcRZGqnbE2ebPCl0OOzwTJ0zY5c+MwZuC+6dbYFHCmniMjJ2WEdYnVzNtGqGVDOVmnnUDKBm7tRZ0zpi6mRppkkzRJqp0cyLZkBs395ihkIzBZr5zwx8Zs7T8S431ygzzJkZzsxtZlyzzmdmJjOjmBm/zMilk5ZkLKn16436xz9Uaqpat86otWtVSopRa9ao1avVqlVGrVxpVHKyWrFCLV9u1LJl6osvjEpKMiox0ajPPzdKGvslS+RwYNTixXLQMWrRIqMWLDAqNtaomBgVHa2iooyaP19FRhr12WdGzZunXnwx7KmnRs6dq/7+d6M++cSojz82avZsNWuWURERauZM9dFHRs2YYdTf/maUHAOlPvxQhYUZ9dvfjvL3X/v++0pq6lSjJE1IydtXavJk9e67Rk2apN55R45WRk2caFRwsFFvvWXUhAnqzTeNGj9ejRungoKMCgw0auxYo15/3agxY9Rrrxn16qsqIEC98opRL78s65sVExNDnKWRohuFu0p/76y+IeGHa+h7Z+8y4izQFo4U2dnZERERlZWXW06cNS9zEmedj7Offqoky96WOPvBB2raNNWMcXbixIqIiFk7duwgztJIEWfvtrCwsJEjR96WRY0aNWqtNJDNjTgLtG4lJSX6Pb58+fJFixZJoiXOEmebPc6+807F/PkLExMT9c6pb54mzhJnAeIsWgpuNmhRKisr9Xu8qKho2bJlERER2dm7SkvPE2eJs80SZ99993xMTFZExCzJsidOnNA7Z4XscMRZ4iybAsRZtBx8FKxFqa2tLS4uPv297OzsBQsWhIWFhQLNQfa9qKiozMxMc5+U/VP2UuIscZY429rkFx9OK9i81arSjm0uv3KJOAviLG7BtWvXrBPt7aW/Pha4NbJnyv5pNh3EWeJs6zwoWn9pQBs5cEqWHbC4z8iMMYEHp+kaeyB0aMrQievGEWdBnMUtX6OtrKw076MlzqIlBNmKigp9XZY4S5xt5Vdnmzwutr4DZ1rBZp1lcy59PeNYlB6Qny8u/x1xFi6Be2c5ewFu8RoWcZY466SuXbtaLJYHH3zQuhOXAQMGuLm59erVy9yR9EiZ0tvb27rvgGZsKGVYVtbDw6NTp05mZzPWV3AdPmfn104vZOTIkQ47s71rthZsDjwQGrT9NRm+eOVCSPpYGQjKGj80ZQhxFkBL88wzz7ARQJzF3Y6zWn5+vu5FUNX11BocHFxTU1NYWGjGx+HDh69Zs0YGsrKyfHx8WkicXbhwoTzPjIwMT09P+wkcPmfn107+NzIysrq6unlfVomzQdsCdCe3B0r3Jh2OU3Wd3A5dMZA4CwAgzqKtx9n9+/cPGzZMsmCHDh3MbGexWKqqqmzSoYw0L3w2497VZOdk1iMdPmfn166F/Mlsy7FNum9bGZ64bcyp8kIdZ4csfZ44C5fAzQYAiLO4g3H2kUcemTdvnu7Xykxvbm5uNTU19oHPTIHNu3PfVJy1f87Or10LibMb9qYGfR9nJcWuPvqFHnh+Vh/iLFzlmMRGaDu42QDEWdztONuxY8fDhw9LvFu1apV5yOndu3dsbKwMrF+/3hw5bNiw4ODg6urqsrKygICAFhtnvby88vPzG3nOzq9dCzkGp+dt/UPsf0mclQirL9PqgUHhzxFnQZwFLzeIs2jrcTYuLk4SbadOnUJCQsw2KCcnx9vb22KxjBo1yvwUVHFxsWQ+GdmtW7eEhIRm27OtvqjLYZxNTk7uWKeh5+z82rWQRvly1Xfhyz4YML1v/w+fMkuy7M5D24mzIN+AlxvEWbTCOBseHn7+/PnaWqWrpsYos0tuXVevXi/dpaHu1dDs2FD3bbhhQ9rjjz+hOzm06edQd3Woezs0y+z2UJfZ+aFZpaXXO0K06Q5R94hoXWbviGYHibqPRN1NolnW/SXqLhN1HT9eX7r7RN2DotmJotTnn6c99tgTR44os3SfitbdKuqeFc3SXSzqXhatO1rUtXfv9bLud1F3vahr9+7rfTBa98SoO2PU/TGaXTKaHTPqMrtn1D006tL9NNr01qhry5b60j036s4bdZldOOrasKG+L8dNmy5OnTqVOIvbi3tnibMAcRY3F2fj4uIyMnZYR1gzszrsg9uMpGYH3JI7H3qoa/v2ll//use6dRkSN818qZOlmSnNHGkGR/tOt+173LZOgWbss456Ot6Zwc6+o237XrYddrFt37+27lz7gQe6urlZunbtMX16hk3P2jbdaus+tXW32rpPbd2h9sKF1zvUjo6u71DbujftefOMMrvSnjPnelfauh/tiIjr/WjbdKJt34O27j77vfeud5/tsO/st9+27Th7/HijzF6z33jjeq/ZusvsV181KiBAvfKKevllWZ2s+fPnE2cBcPYC4iyaM85mZ2dHRERUVl7+IXFWX0k1r562sji7apVRK1eq5GRFnDXj7MSJFRERs3bt2kWcBQAQZ9E8zO4Kly9fvmjRooqKy8RZ4qyTcfaddyrmz1/4+eefm50N8oYCl+sAEGdxt1VWVuosUlRUtGzZsoiIiOzsXaWl54mzxNlG4uy7756Pjc2KiJiVmJh44sQJvQtVyM4B3L5jEhuBsxeAOAun1NbWFhcXn/5ednb2ggULJk2aFAo0LCwsTPaTzMxMc8+RvUj2Jd5QIM6ClxvEWTSDa9euWSdaITvDacBpsv/IXsRbCeQb8HKDOItmU1tbW1lZad5HS5yF80G2oqKC67K47fjrM3EWIM6ClgUAwNkLiLNoq+g+GwAAEGcBALhFXK4DQJwFALj2MYmNwNkLQJzFreNmAwDEWfBygzgLWhYAoBUCLzeIs6BlAdD28NdnDjoAcRa0LAAAzl5AnAUtCwAAAHEWAABOqgEQZwEAbeiYxEbg7AUgzoKWBQBxFrzcIM6ClgUAaIXAyw3iLGhZAMB5/I2Igw5AnAUtCwCAsxcQZ0HLAgAAQJwFAICTagDEWQBAGzomsRE4ewGIs6BlAUCcBS83iLOgZQEAWiEAxFlwIAEA5/E3IgDEWRBnAQAAcRZtFddFAAAAcRYAAE6qARBnAQBt8pjERgBAnMWt47oIAOLsnZOamurh4dGhQ4fWsabWq9PqXy8QZ8GBBABohZSPj09WVlarWVPr1Wn1rxeIs+BAAgBOad1/I7JYLK2pvbVenVb/eoE4C+IsANDAXmfd3s6YMWPq1KlOtszmcEJCgqenp+St4cOH6zHFxcUDBgyQMd7e3unp6dbTjxw50s3NrZHlT5gwoUOHDl5eXrt27XI4o/3CbVbHmUdvaJrQ0FAPD49OnTrFx8frkWVlZf7+/vKUfHx8tmzZ0tC89huhba4giLNoQ9dFAKDlXDLQw9HR0cHBwTc7l3B3dy8qKqqurp47d64eI4lnzZo1MpCVlSUhyZw+MjJSJmt8+atWrdJPpnfv3g5nbGjh5kKcefSGplm4cGFNTU1GRoZENz1SAqKsl4yUkDdq1KiG5rXfCG1zBUGcBQBwUt08cTY5OVlHmVuIs76+voMHD05MTCwvL9djLBaLeTXRPKw78zc3cxpJV+bHnmxmbHLhzjx6k9OYwzKlPJkm57XfCG1zBUGcBQC00MDX6uPsiBEjHn/88bKysluIs1VVVUlJSX5+fk888YSZh2TkLWxPc5rq6upG0l7jC3fm0ZucpvG0Zz+v/UZomysI4iza0HURAMTZFhVn5WdGRsaQIUMan8vT0zM9PV3ST2xsrLmEadOmSdY5ffq0u7u7HjNs2LDg4GBJbJKPAwICbirOynJk+TK7LMThjE0u3JlHb3Iac1im1LeZmn+Ldziv/UZomysI4iza0IEEAK1QS4uz4uDBg5JaGplLck/nzp07duwYGhpqzuXv72+xWCTpmp8ukmAkkUhGduvWLSEh4abi7JNPPunm5vbss8/KQhzO2OTCnXn0Jqcxh2XK4cOH6ynN2Gc/r/1GaJsrCOIsiLMAWhD+RkTLzwqCOAve8wDgkiyO3IXlt5pvV231KwjiLJzCdREAAECcBQCAk2oAxFkAQJs8JrEROHsBiLOgZQFAnAUvN4izoGUBAFoh8HKDOAtaFgBwHn8j4qADEGcBAABnLyDOAgAAAMRZAABuCpfrABBnAQCufUxiI3D2AhBnAQDEWfBygzgLAAD5BrzcIM4iNTXVw8OjQ4cOrex9SxsE4E7gr8/EWYA42+L4+PhkZWW1/PctbQoAgLMXEGfhgMVicYnISJwFAADEWTjauN+zjowzZsyYOnWqk+HSHE5ISPD09JR8PHz4cD2muLh4wIABMsbb2zs9Pd16+pEjR7q5uTW0fJtF2TzPwsLCJ598UmaXn0VFRQ4Xaz4rh8/B/qne6dV08hEBtHBcrgNAnG2J29dmODo6Ojg4+GbnEu7u7hIuq6ur586dq8dIdFuzZo0MZGVl+fj4mNNHRkbKZI0s335R1o84aNCgWbNmycDMmTNfeOEFh4s1p3f4HOyXf6dX08lHBOBCbSY4ewGIsy0xziYnJ48aNeoWQrDw9fUdPHhwYmJieXm5HmOxWMyrquaL6MzBwH5R1nPJYmtqamRAfpo3S9gs1vzV4XOwX/6dXk0nHxEAcRa83CDO4gfF2REjRjz++ONlZWW3EGerqqqSkpL8/PyeeOIJM+fJyFtoHewX1VCc1d/J0HictX8O9su/06vp5CMCIN+AlxvEWfygOCs/MzIyhgwZ0vhcnp6e6enpkiZjY2PNJUybNk1C2+nTp93d3fWYYcOGBQcHV1dXSz4OCAhwvnWwX5SXl1d+fr4eHjRokEyg6u7xHThwYONx1uFzsF/+nV5NJx8RQAvHX5+JswBx1gXirDh48KDOiw2Jj4/v3Llzx44dQ0NDzbn8/f0tFotEQPlfPaa4uFiinozs1q1bQkKC862D/aKSk5M71pHhoqIiX19fNze3p59+2uajYPbr4vA52C//Tq+mk48IAODsBcRZAAAAgDiLOhZHXGj5rvU0ALR8XK4DQJwFALj2MYmNwNkLQJwFLQsA4ix4uUGcBS0LANxdx48fl1ZIfrIpOOgAxFnQsgBwPYGBgdIKBQUFsSk46ADEWdCyAHAxZ86c6dKli7RC8lOG2SBtAXe4gTgLWhYArUdgYGBQUJAckvQAGwQAcRYA4DL0pVn5+fDDD5vDbBYAxFkAgGswr8jqW564QNtG8CdBEGdBywK0RLW1tZWVlSUlJWfOnDkNJ+Tm5t5///3yU4blkGQzBo0rLi6uqKiQvc5FIwgtBoizoGUBWpZr165JvCBj3ZSXXnpp9OjReljHWZuRcCbUyr7HQQfEWYCWBfhBamtrzSx75syZvXv3LV4cHx4eHgrcftNnzly4fXuW3t+OHTsm+57LXaPloAPiLGhZgJalsrLSzLJr1qTMnj17+/YdpaXnr15VUlVVRl2+bNR33xlVUWFUeblRly6pixfVhQtGnT+vysrUt98aVVqqSkpUcbFR586ps2fVmTNGnT6tTp0yqqhInTypCguNOnFCFRSo48eNOnZMffONOnrUqPx8ow4fNurQIaO+/tqovDyjDhxQ+/erffuM2rtX5eaqnByj9uxRu3erXbuMys42KitLZWaqnTuN2rFDZWSo7duNSk9X27aptDSjtm5VW7aor74yavNmtWmTURs3qg0b1JdfGrV+vfrHP1RqqlHr1qm1a1VKilFr1hi1apVRK1catWKFUcuXG7VsmfriC5WUZNTSpSoxUX3+uVEJCWrJEhUfb9TixSouTi1aZNTChWrBAqNiY1VMjIqONioqSs2fryIjjfrsMzVvnlGffqrmzjXq739Xc+aoTz4x6uOP1ezZatYsoyIi1MyZ6qOPjJoxQ4WHq7/9zajp040KCzPqgw+Mev99o6ZONeq991RoqJoyxajJk9W776pJk4x65x0VEqImTjTq7bdVcLBRb72lJkxQb75p1Pjxatw4FRRkVGCgeuMNNXasUa+/rsaMUa+9ZtSrr8pw+bhx2aGhnyxatPTIkSOenp4vvfTSN/KSuxTucANxFrQsQMtSUlKis2xKSsqiRXGVlZevXVPV1Yo4S5y97XFW6pVXVEDA5cmTlyQkLM3NzR09enTnzp0DAwP5UggQZwEAt0hfmt23b9/s2bMly9bUKOIscfaOxlmdaMPCZmdmZuqP0AUFBXXp0sUlQm12dvaoUaNoN0CcBYAWF2eXLFmSkbFDsixxljh7F+Lsyy/L8nNjYmL07qfqvsTXDLXHZVdoqVn2sccei5KXBCDO4vbiZgPgh8fZ8PDwsrLzxFni7F2LswEB5SEhIfd87+GHH77Hjtm8y0DzjtQeffRRsiyIs7hTewMbAfiBcTY0NLS2Vp0uLk/NOLIu4+jaHQVrd55cm3U6JetcSnYJcdYmzs6alfXII4+3a+fWvn0H4uytxVkp2eusr84GBgZ26dIlKCioxV6dBYizIM4CLT3Opu4pCd1U+lH6+ejd5SsOXk47cW1fce1v3kgnztrE2V//+klpeWbP3sXV2R8eZ3Nzc80gywfCQJwFcRbAD4qz+/P2Rn91OHrL0eitBdHbTkZtPx2Vce7dmR8SZ23i7L333ictDzcb/PA4+9JLL91///0EWRBn0dZx7yxwu+JswdHdeeW156qUdS2JevVOx1l9q6KOs3pYx9lly3b27Pl03d/0LT/7mZeOs7t3V/7pT6+7u3eU8b/5Ta+EhCwdZ/WMISHzHn64u/xXI3FWT9mnz4tubpaHHvKOicnRcVaPDwqa94tfGEuQOJuSUvn737/eoYPxWN269fr44yyJszb3d0qcTUqq/N3vjMnuu8/tV7/qFR6epeOsnuCll+Y99FB3+S+JswsXVg4Y8Po//7Mx5S9/2Wvq1CwdZ/WUL744Wf6rQ4dOL7+coOPsnDkX+/QZZbG4y/QeHt46zn78cWW/fvUL8fLq9eabWTrOjhu385e/fFpGtmtn6dzZyyXi7OjRo3PlxQOIswCA2xJn84/kSpwtuapKq1TpVVVS9/OzOeObK84+8MCDMrx9+1nrq7N/+MNIGblqVd769QUy4O3dwzrOmpqMs6tXn505c70MPPFEX+s4a5I4+/zzxmNFReUtXmw81i9+0UNfndUTmFdn+/c3JpszJy8qypisa9ce1nHWJHG2Xz9jyhkz8j7+2JjyoYd6WMfZiIjC8PBvZKBTJ08dZ//jP0bIr//933Osr84+/bSxkEmT8t5/31iIp2cPHWc7djQ219SpZ13x3lmAOAsAuA1x9uuvD0icvVStzLpYrcKmT2muOPvznz8iw926+fzxj6NTUvJ0nG3f3mKdEe+99z7rOPvVV6VN3mygp9Q3G8iAxdLBOs6uXFlq3mzg5mb7WA7jrP1k1nE2JqbUvNnAfkrrOKtvNvh+LiPOtmtnTB8ZWWMdZ/VI64XoONulyyN16dbnqadGBwfnEWcB4ixcBjcbALcrzubuP5RXrq5cq68qqRo1YXJ4c8XZtWv3//73/r/4hXddSutqHWf37auxuXdWz+jMvbNmnN26tcY+zlrfO6vT5/r1NTb3zjqMs8nJNTb3zurJrO+d1VMuWVJjc+/sLcTZv/+9xube2bff3v9v/+b/wAPG5rr//q7EWYA4C1faG9gIwG2Js7tyj7zy1icBwTeUjLnTcfYnP/GUN/KWLfnbtxdax1n9UbDs7DIZ4+HhqePs739v/P19+vR4ibNfflnYt+/AW4uzaWk1kybFycDzz/s3FGefe854rLffjpc4u3hx4ZNPDnQYZ//zP0fU3XQbL3F2/vzCXr0GNhRnn3nGmPK11+Ilzn78ceG//uvAxuOsr++fZfhPf5pnHWefespYyIgR8RJn33+/0MdnoPVHwT74wNhcHTt6EmcB4iyIs0Cbi7PN1Y3C7NnxnTp1dnfv+MYbodZx9he/8G7f3lL3ka+e8fFpOs5mZ5ePGDFe0q2M/5d/8Q0Njb61ONu9ey9Zwm9/2z8lpbShOLt6dfnQoeO7dDEe67HHfAMDox3G2aVLy3//+/GdO3ved5/br3/t++qr0Q3F2QULygcOHH///caUjz7qO2pUdONx9pNPyvr2HW2xuN97730PPPCIjrOzZ5f37z/+xz/2rPs8ma+fX7SOsw884N2unUVG/vznPceMSSPOAsRZEGcB4mzr7BXM+t5ZegUjzgLEWTQ/7p0FiLP2cbZ9e4t1ubnVl8RZPUCcJc4CxFkAIM620W4UiLPEWYA4CwDEWeIscZY4C+IscRZ1uNkAIM4SZ4mzAHEWrr03sBGAHx5ngbuPOAviLHEWxFngtsVZNgXuMuIsCDDEWRBnAeIsiLMAcRauj3tnAeIsiLMAcRYu7Ntvv2UjAMRZEGcB4ixc0vHjx2VnkJ9sCoA4C+IsQJyF6wkMDJSdISgoiE0BtIQ4y73sIM4CxFnchDNnznTp0kV2Bvkpw2wQ4DbE2Q1/VBv/2HQTXIc4ezuPag1s0la8bYmz4I1PnIVxaTYoKEh2Bj3ABgF+aJz9JkmpWqVWqh1/MobNqjjpZLQizv6QA9sPnIA4CxBn4WL0pVn5KTuDOcxmAX5wnI1Ukf+kVN2A+qy+Nv62kWhVXFzcv39/Nze3nj17EmdvS5yVYXlFPDw8OnXqFB8fr6wu3+rJZJsPGDDAYrF4e3unp6ebL4SMlBeiV69e5iHS4ZR6ISNHjpSJibMAcRbNxrwiq9tlLtACtynOfqa+uUedu0dtqCt1j9p4j9ob2Ej2Gj58eEhISE1NjSyHOHu74uzChQtlk2ZkZHh6ejrc5mvWrJGBrKwsHx8fPdLPzy84OFjmKiwsNCd2OKX8b2RkZHV1dfOuMnEWvOuJs66htra2srKypKTkzJkzp2+f3Nzc+++/X37qw6fNGLRwxcXFFRUVsm/wBmlxcfZshpFlpfbONH7d+Ee1r6ty9EpZRyuLxWIGI+Ls7Yqz9sM229y8WGseDWVkVVWVzcQOp2whLxNxFrzribMu4Nq1axJc7kQeeumll0aPHq2HdZy1GQmXCLWyh/A2aVlxtu4ktK7qz0dVA2cd1nnIzc2tpqaGOHuX46yZXBt/IRxOSZwFiLNwSm1trZllz5w5s3fvvsWL48PDw0PRdk2fOXPh9u1Z1omWa7QtL87edPbq169fZGSkDKSmphJn71yc9fLyys/P18PDhg0LDg6urq4uKysLCAjQI3v37h0bGysD69evN+dyOCVxFiDOwimVlZVmll2zJmX27Nnbt+8oKTl/9aqqqlJXrqjLl9V33xlVUWFUebm6dEldvKguXDCqrMyob79VpaWqpEQVFxt17pw6e1adOSMHYHXqlCoqMurkSVVYqE6cUAUF6vhxdeyYUd98o44eVdLyHzmiDh9Whw4ZdfCg+vprlZenDhxQ+/cbtW+f2rtX5eaqnBy1Z4/avduoXbtUdrbKylKZmWrnTqN27FAZGWr7dpWerrZtMyotTW3dqrZsUV99pTZvVps2GbVxo9qwQX35pRxL1D/+IYd2o9atU2vXqpQUtWaNUatWGbVypUpOVitWqOXLjfriC6OSktTSpSoxUX3+uVFLlhgVH68WL1ZxcWrRIqMWLDBKDlgxMSo6WkVFGSVBQuqzz9S8eUbNnWvU3/+u5sxRn3yiPv7YqFmzjIqIUDNnqo8+UjNmGPW3vxk1fbr68EMVFqY++MCo9983aupU9d57crBRU6YY9e67Rk2apN55R4WEqIkTjQoONuqtt9SECerNN9X48UYFBRkVGKjeeEONHatef92o114zasyY8nHjskNDP1m0aOmJEyf07lEhrz1cLc7afKtUXl5e9+7dLRaL/qYRNuktHtWsNqnDOJucnNyxjqr7gJfkVNnm3bp1S0hI0BPk5OR4e3vLyFGjRpmf8XI4JXEWIM7CKSUlJTrLpqSkLFoUV1Fx+do1JVmWONtm4+yrr6qAAKnLkycvSUhYal6g5c3icnEWLVxaWtoTTzzR8p8ncRbEWeKsaxwj9+3bN3v27MpKI8sSZ4mzEmdfecVItGFhszMzMzmSEWdxe3Xt2tVisfTo0SND2iziLECcxW05Ri5ZsiQjY0dNjSLOEmfNOPvyy2ry5NyYmBiOZMRZtGXEWRBnibOucYwMDw8vKztPnCXO2sTZgIDysLAwjmTEWRBnaQRAnIULHCNra9Xp4vJ124+syzi6dkfB2p0nUzJPr8k8tyarhDjbZuOsFEeyNhhnU1NTPTw8OnTo4NKHn9a9P+QXH04r2LzVqtKObS6/cslmsq17T6btP7ltf9GFiivEWYA42ybibOqektBNpR+ln4/eXb7i4OW0E9f2Fdf+5o30thNn9WeWbyHO6hmJs2gdcdbHxydL3loucYyx+p6BuxBnG3nEu5mkJcsOWNxnZMaYwIPTdI09EDo0ZejEdeNsphy9/Mhb609O2lSUk+/g05xx8/6qa+v6T4mzAHG2lcTZ/Xl7o786HL3laPTWguhtJ6O2n47KOPfuzA+Js1yd5UjWpuKsxWJxocPMXc6UTS75LsTZtILNOsvmXPp6xrEoPSA/X1z+O5spU7Zs27rvZNq+osLCQ/bLWb3y04Jzl6U+X/BWI98tTSMA4ixx1pXibMHR3XnlteeqlHUtiXr17sRZHSV1nNXDOs4uWbLzX//16Xbt3Nq3t3h6euk4u3175f/7f6//6EcdZfxjj/WKjc3ScVbP+Oab87y8ust/NRJnP/lk529+YyzWzc3y4INeEmfvuZHE2cWLS59+ephMICUDMTHFOs7qCf7613kPPdT9vvvcbK7ORkVV9u//+j//c0f5r4cf7jVpUpaOs2+/vfNXv3paRrZrZ+nSxYs4izsdZ2WfnDBhQocOHby8vHbJ+Z9V2Bo5cqT+xtPi4uIBAwZIfvX29k6XE0F1wxvB4QTOLERPI8/Ww8OjU6dO8XLCV6esrMzf31+eko+PzxZ5ZzYwb0JCgqenp4wcPny489lRFtW/f395Sj179rw7cdZ+HZ3ZenqkPM9evXqZh0hntrNpa8HmwAOhQdtfk+GLVy6EpI+VgaCs8UNThtg82zNFuVdrldTupX5Hvpxo879LEhcWX7hacqFqZvjYgm+yZUzB0WyziLMAcdYl42z+kVyJsyVXVWmVKr2qSup+fjZnfPPG2S5dHpThzZvPWl+dffHFkTIyKSlv1aoCGXjkkR7WcdbUSJy9/35jsZ9/fraRq7N9+/rJr1Onbp40yehF6amnhlnHWZNNnO3b13huH3yQN2OG8dx+9rMeOs527Gg8Ynj4Wa7O4q7F2VWyHysVHR3du3dvc2RkZGR1dbX+VfLiGtnjlcrKypKIaZ/YGprAmYUsXLiwpqYmIyNDsqkeKcls7ty5MlLS26hRoxqa193dvaioSJYvEzsfLmVRISEhsnDdq/bdibP269jk1vPz8wsODpa5CgsLzYmd2c7WcTZoW8C4LS/J8IHSvUmH42Rg/JbRQ1cMtJnyxIl9lddUxTV1JjfqTG709Y6R60QuWl519ZrU/LgVcfP+euhgburqOQXnvpOKmzeSOAsQZ10yzn799QGJs5eqlVkXq1XY9CnNG2cfeugRGf7Vr3yGDBm9fHmejrPt21usA+W9995nHWfXri1t8maDn/7UWOzDD/u88MLoyMg8h3HWzc14lBUr1LJlNTIgv1rH2aioUof3zrZrZ/vcdJx94AHjER96yKd379GTJ+cRZ3EX4qwekORkfq7LJudZLNd3V7O5tp6myQmcmcYclinlyTQ5r6+v7+DBgxMTE8ulxXE6XMqizOR31+Ks/XCTW09GVlVV2W+ZJrezacuxTZJldZyduG3MqfJCHWeHLH3eZsojx/LOX1VSpzI/PJU5Xd14R0HmnkO6jh433uARcxckfRF9qvSK1MzwscRZgDjrknE2d/+hvHJ15Vp9VUnVqAmTw5s3ziYn7x80yL9rV28Z89OfdrWOs5mZNTb3zuoZnbl3dv78/f37+//sZ8ZiPTy6NhJnly+vWb7c+K/27TtYx9mGPgqm42xsbI3NvbNTpuz39fX38DAesXPnrsRZ3LU4KyGvkThrRquGMmLjEzgzTeNx1n5eGZOUlOTn59dkp1nWj+Lm5mYuvOXEWfu1c/g8ndnOpg17U4O+j7OSYlcf/UIPPD+rj82UOUcO7t+1Mmt+n5Ld75XseS8rqm9RbnIjaxezOLHicrXUuHemEGcB4qxLxtlduUdeeeuTgOAbSsbcnTjr4eEpO8yXX+Z/9VWhdZzVHwXbtq1MxjzwgKeOs4MGjZBf338/XuLs6tWF//EfA282zuqPgi1bVlYXLj11nO3QoaP8GhNToOPsM8/8WX6dPHm9lAz07u3nTJzt08d4bqNHx0ucnTGj8F/+ZaD1R8EiIoxH/PGPPYmzuAtxVmaR5BQcHDxs2DCHCUnGy/9K3i0rKwuQF95umiYncGYac1im1PeYmjcbOJx32rRpku3kybu7uzsfLvv16xcp77G6Lxprxjjr5eWVL41aw1umd+/esdI6KGmC1ltvmSa3syk9b+sfYv9L4qxEWH2ZVg8MCn/OZsroqFkx0bO/COpSfTxcalnQA42v3Yg3Zv4l0CgZIM4CxFmXjLPN243CRx/F//jHnd3dO44ZE2odZ7t29W7f3lL3ka+eMTFpOs5u21b+5z+Pl3Qr4//X//INCYm+2Tj7s595u7kZi/3Vr3rOmJGm42xQ0EKJtvfee1/79h0kzsbHl/Xt66c/Ctanj19sbKkzcTYysvz558d36uR5331u3t6+//M/0TrOenh4t2tnkZG/+EXP8ePTiLO4C3H2ySefdHNze/bZZyU+OkxIMl6ClMVi6datW0JCgv00TU7gzDTmsEw5fPhwPaWZa+3n9ff3lzGenp7mZ8gaPMZYfW1WXl5e9+7dZcagoKC780VdDtcxOTm5Y52G1i4nJ8fb21tGSqA3P+PlzHY2Xa76LnzZBwOm9+3/4VNmSZbdeWh7Q898T8L/7E7wv7W1phEAcZY4S5ylGwW+qAvNFmfZbi1ZWlpak3dTtAQ0AiDOEmeJs80ZZ/WFVfsizhJn20KcdaGvj21yRey59Bp17dpVVqFHjx4Z0mYRZwHiLIizXJ0lzhJnAeIsQJzlGEmcJc4SZ4mzAHEWIM4SZ4mzxFkQZxs4HvAi3kb5xYfTCjZvtaq0Y5vLr1yymWzr3pNp+09u2190oeIKcRYgzrb+YyTQEI5kxNmbaPStPvjf+uJsIyt4N9dUsuyAxX1GZowJPDhN19gDoUNThk5cN85mytHLj7y1/uSkTUU5+cX2y4mb91ddW9d/SpwFiLMcI9FqcSTjrXqz7X5zhbzmXcG7uaZpBZt1ls259PWMY1F6QH6+uPx3NlOmbNm2dd/JtH1FhYWH7JezeuWnBecuS32+4K3aGzsMoxEAiLMcI0GcRfO/VR1+K2pCQoKnp6fFYhk+fLgeU1xcPGDAABnj7e2dnp5uPf3IkSP1F6Paz+XMg8qS+/fvL0vo2bNnq4yzMiyviIeHR6dOnfRX5Fp3cN3QttUjZbP06tXLPEQ68yqYthZsDjwQGrT9NRm+eOVCSLrRIW1Q1vihKUNsnu2ZotyrtUpq91K/I19OtPnfJYkLiy9cLblQNTN8bME32TKm4Gi2WTQCAHGWOAviLFpinHV3dy8qKqqurp47d64eIwl1zZo1MpCVleXj42NOHxkZKZM1NJczDypLDgkJqampkWfeWuPswoULZQUzMjIk7jvcAvbb1s/PLzg4WOYqLCw0J3bmVbCOs0HbAnQntwdK9yYdjlN1ndwOXTHQZsoTJ/ZVXlMV19SZ3KgzudFK3XAJNnLR8qqr16Tmx62Im/fXQwdzU1fPKTj3nVTcvJE0AgBxljgL4ixaYpz19fUdPHhwYmJieXm5HmOxWMwLimaLbZM+7edy5kFlyWYUa61x1n7YZgvYb1sZWVVVZTOxM6+CacuxTbpvWxmeuG3MqfJCHWeHLH3eZsojx/LOX1VSpzI/PJU5Xd14R0HmnkO6jh433uARcxckfRF9qvSK1MzwsTQCAHGWOAviLFpinJUglZSU5OfnZ/ZHZZ2uHM7rcC5nHtTNza2mpqaNx1n7betwszjzKpg27E0N+j7OSopdffQLPfD8rD42U+YcObh/18qs+X1Kdr9Xsue9rKi+RbnJjaxdzOLEisvVUuPemUIjABBn22ic5bt4iLNoOW9VT0/P9PR0SU6xsbHme3PatGkSm2RR7u7uesywYcOCg4Orq6vLysoCAgIcvpft53KmEejXr19kZKQMpKamtp046+XllZ+f38i27d27t7wiMrB+/XpzLmdeBVN63tY/xP6XxFmJsPoyrR4YFP6czZTRUbNiomd/EdSl+ni41LKgBxpfuxFvzPxLoFEyQCMAEGdd9hi54Y9q4x+bfl1b9Xfx3MKKt+ItwJHMdeNsfHx8586dO3bsKHOZe6a/v7/FYpGkqz+6pOo+hCRZSkZ269YtISHB4Z5sP5cz75G8vLzu3bvLjEFBQa3yi7ocxtnk5OSOdRratjk5Od7e3jJy1KhR5me8nHkVTJervgtf9sGA6X37f/iUWZJldx7a3tAz35PwP7sT/GkEAOJsGzhGfpNU90GBlWrHn4xhsypOOhnaWv3V2ZbwHT3E2bb8Vg0PDz9//nxtrdJVU1NfugOU6urrpTtDMbtE0b2i6Lp8ub50Dym6KiuN0r2l6A5TdF26VF8XL14v3YvK+fPXy+xRxazS0voqKakvs5sVXWfP3lBnztT3vaLr1Kn6MvthMauwsL5OnKivgoL6On78epl9tZh19Gh9vy266xbrOny4vszOXHR9/fX1ysurrwMH6svs50XX3r3XKze3vnJy6mvPnvoyO4KJikr79a+f0D3C6MrKqq/MzOsdxJjdxJiVkVHfZYyu9PT60t3HmJ3I6Nq6tb43GV1ffXW9Nm+uL7OLGbM2bKjvbmbTpothYWE0AiDOEmddK85Gqsh/UqpuQH1WXxt/20hoa5XfxeNMWm2u7+ghzrblt2pcXFxGxg4zwpqxVQdW65BqnUqte/LT0dNMnPad+Zn9+ekoacZHs0s/qfbtLfZlZkHr8Kczn5n2zHinU50kOTPMOezhz+zkz0xmZiCz7+evoa7+7Hv7k1qx4nqHf8uW1Xf4Z9PnX0JCfZ9/Nt3+LVxo2/Of7vxv/nzbzv8+/dS2/z/dBeD993dt187y05/2GDs2Q3cBqHsBDA+/3gugVFiYg44AbfoCnDy5vi9Am+4A337btkdA3SnguHG2nQLqfgHHjLneL6DUK6/Udw0YG5sVExNDIwDiLHHWteLsZ+qbe9S5e9SGulL3qI33qL2BjaS6VvldPE7G2Wb5jh7ibFt+q2ZnZ0dERFRWXm7eOGv2UG1e7LS+tEmcbTLOzp5t26N1y4yzEydWRETM2rFjB40AiLPEWdeJs2czjCwrtbfuQwAb/6j2dVWOuopp9d/F42SctR++C9/RQ5xtm0pKSvQLsXz58kWLFkmiJc4SZ+9onH3nnYr58xcmJibqHa+4uJi3IYizcIU4a6i9/j3b+u68plJdq/wuntsVZ+/Ed/QQZ9umyspK/UIUFRUtW7YsIiIiO3tXael54ixx9rbH2XffPR8TkxURMUuy7IkTJ/SOVyH7E0CchYvE2ZtOda3yu3huOc7ehe/oIc62TbW1tcXFxae/l52dvWDBgrCwsFDgdpP9KioqKjMz09zfZN+rbeDqBkCchUvG2Vb/XTxOrnhzfUcPcbbNunbtmnWiBe4O2etk3+MNCOIsWtvVWfxwaWlpTXawRJyF/TXayspK8z5a4E4H2YqKCq7LgjhLnCXOwlbXrl0tFkuPHj0yMjKIswAAEGdBnAVxFgAA4ixxFiDOAgBAnCXO3v2drA2+avnFh9MKNm+1qrRjm8uvXLKZbOvek2n7T27bX3Sh4gpxFgAA4ixxtln3JKuvFGiuONvI07ibz0ey7IDFfUZmjAk8OE3X2AOhQ1OGTlw3zmbK0cuPvLX+5KRNRTn5Dr7/PG7eX3VtXf8pcRYAAOIscfaO70zNFR9v6uHuwvNJK9iss2zOpa9nHIvSA/LzxeW/s5kyZcu2rftOpu0rKiw8ZL+c1Ss/LTh3WerzBW818sll4iwAgDhLnG1tcdbh960mJCR4enpaLJbhw4frMcXFxQMGDJAx3t7e6enp1tOPHDlSf+Wq/VzOPKgsuX///rKEnj17NmOclWHZbh4eHp06dYqPj1dWl2/1ZA63gB4pT75Xr17mu8OZbWXaWrA58EBo0PbXZPjilQsh6WNlIChr/NCUITbP9kxR7tVaJbV7qd+RLyfa/O+SxIXFF66WXKiaGT624JtsGVNwNNss4iwAAMTZthVn3d3di4qKqqur586dq8dIQl2zZo0MZGVl+fj4mNNHRkbKZA3N5cyDypJDQkJqamrkmTdvnF24cKE8jYyMDAnlDp+n/Rbw8/MLDg6WuQoLC82JndlW1nE2aFvAuC0vyfCB0r1Jh+NkYPyW0UNXDLSZ8sSJfZXXVMU1dSY36kxu9PXui+tELlpedfWa1Py4FXHz/nroYG7q6jkF576Tips3kjgLAABxtm3FWV9f38GDBycmJpaXl+sxFovFvFRp7gY26dN+LmceVJZshrzmjbP2wzbP034LyMiqqiqbiZ3ZVqYtxzZJltVxduK2MafKC3WcHbL0eZspjxzLO39VSZ3K/PBU5nR14x0FmXsO6Tp63IiqEXMXJH0Rfar0itTM8LHEWQAAiLNtK85KREtKSvLz8zN7urLObQ7ndTiXMw/q5uZWU1PjEnHWfgs4fPLObCvThr2pQd/HWUmxq49+oQeen9XHZsqcIwf371qZNb9Pye73Sva8lxXVtyg3uZG1i1mcWHG5WmrcO1OIswAAEGdbbZz19PRMT0+XTBYbG2tGrmnTpkkgk0W5u7vrMcOGDQsODq6uri4rKwsICHAY0eznciZH9uvXLzIyUgZSU1NbWpz18vLKz89vZAv07t1btpsMrF+/3pzLmW1lSs/b+ofY/5I4KxFWX6bVA4PCn7OZMjpqVkz07C+CulQfD5daFvRA42s34o2Zfwk0SgaIswAAEGdbbZyNj4/v3Llzx44dZS4zcvn7+1ssFkm6+kNRqu7jTZLSZGS3bt0SEhIcRjT7uRrck6y+ISsvL6979+4yY1BQUDN+UZfDOJucnNyxTkNbICcnx9vbW0aOGjXK/IyXM9vKdLnqu/BlHwyY3rf/h0+ZJVl256HtDT3zPQn/szvB/9bWmjgLACDOEmdbW5zFbZGWltbkLRYtAXEWAECcJc4SZ51lcaT1bfOuXbvKevXo0SMjI4M4CwAAcRatJ86COAsAAHEWxFkQZwEAIM4SZ+/wnuHSy292+cWH0wo2b7WqtGOby69cspls696TaftPbttfdKHiCnEWAADiLHG2ZcVHm+8ZuAvPp5FHvJubQrLsgMV9RmaMCTw4TdfYA6FDU4ZOXDfOZsrRy4+8tf7kpE1FOfnF9suJm/dXXVvXf0qcBQCAOEucbZ497C4/nyaXfBc2RVrBZp1lcy59PeNYlB6Qny8u/53NlClbtm3ddzJtX1Fh4SH75axe+WnBuctSny94q/bGDsOIswAAEGdbc5xNSEjw9PS0WCzDhw9XVtcsdZIrLCx88skn3dzc5GdRUZF1yBs5cqT+plUz8xUXFw8YMEAW5e3tnZ6e7nD5TmZHWVT//v1l+T179rw7cVaGZbt5eHh06tRJf2+uzaZwuHZ6pDzPXr16me8Oh1PabDTT1oLNgQdCg7a/JsMXr1wISTc6pA3KGj80ZYjNsz1TlHu1VkntXup35MuJNv+7JHFh8YWrJReqZoaPLfgmW8YUHM02izgLAABxttXGWXd3d8mp1dXVc+fOtQ95gwYNmjVrlgzMnDnzhRdeMCeIjIyUWWyml8C6Zs0aGcjKyvLx8Wlo+c6ES1lUSEhITU2NrM5di7MLFy6UR8zIyJD87fAp2a+dn59fcHCwzCW5v/HtYLPRrONs0LYA3cntgdK9SYfjVF0nt0NXDLSZ8sSJfZXXVMU1dSY36kxutFI3XIKNXLS86uo1qflxK+Lm/fXQwdzU1XMKzn0nFTdvJHEWAADibKuNs76+voMHD05MTCwvL7fPcBaLRbKaDMhP81tjbfKl+atMYF7ONHcV++U7Ey5lUfZx+U7HWfthm6dkv3Yysqqqypnt0NBabDm2SfdtK8MTt405VV6o4+yQpc/bTHnkWN75q0rqVOaHpzKnqxvvKMjcc0jX0eNGVI2YuyDpi+hTpVekZoaPJc4CAECcbbVxVtJYUlKSn5+f2alVQ3G2Q4cOTcZZM9s1snxnwqWbm5t+3BYVZ+3XzuHzdDhlQ2uxYW9q0PdxVlLs6qNf6IHnZ/WxmTLnyMH9u1Zmze9Tsvu9kj3vZUX1LcpNbmTtYhYnVlyulhr3zhTiLAAAxNlWG2enTZsm2Uvmcnd312O8vLzy8/P18KBBg2QCGZgxY8bAgQMbj7PDhg0LDg6urq4uKysLCAhoaPnOhMt+/fpFRkbKQGpqajPGWetN4XDtevfuHRsbKwPr169vfDs0tBbpeVv/EPtfEmclwurLtHpgUPhzNlNGR82KiZ79RVCX6uPhUsuCHmh87Ua8MfMvgUbJAHEWAADibKuNs/7+/haLxdPTU3/+SSQnJ3esI8NFRUW+vr5ubm5PP/20zUfB7MNfcXGxJDlZWrdu3RISEhpafoO7l9XXZuXl5XXv3l1mDAoKujtf1OUwzlpvCodrl5OT4+3tLSNHjRplfsbL4ZQNrcXlqu/Cl30wYHrf/h8+ZZZk2Z2Htjf0zPck/M/uBP9bW2viLACAOEucdYE4Gx4efv78+dpapaumxqhr14yqrq6vq1frq6rKqCtXjLp8ub6+++56VVYaVVFhVHl5fV26ZNTFi/V14UJ9nT9vVFmZUd9+e71KS40qKamv4mKjzp0z6uzZ63XmjFGStXSdOmWUpGhdJ0/WV2GhUSdO1FdBgVHHj1+vY8eM+uab+jp61Kj8fKOOHKmvw4fr69Ahow4eNOrrr69XXl59HThg1P79Ru3bV19799ZXbq5RMTFpv/71Ezk5as8eo3bvNmrXruuVnV1fWVlGZWYatXNnfe3YUV8ZGUZt325Uenp9bdt2vdLSjNq61agtW+rrq6/qa/NmozZtMmrjxvrasMGoL7+UkRfDwsKIswAA4ixaepyNi4vLyNhhRlgzturAqkOqGU91KtVh1IyhOnqaoVMHTZ0vzWSpA6XOkWZ81KlRh0UzJupoqBNh+/YW+9LJT0c9M+TpbKdTnZnkdIbTuc0MbTqrrV+v/vEPlZpq1Lp1au1alZKi1qwxatUqo1auVMnJasUKtXy5UV98YVRSklq6VCUmqs8/N2rJEqPi49XixSouTi1aZNSCBUbFxkpmVdHRKirKqMhIoz77THXu3LVdO4unZ48338z4+9/VnDnqk0/Uxx8bNWuWURERauZM9dFHasYMo/72N6OmT1cffqjCwtQHHxj1/vtGTZ2q3ntPhYaqKVOMevddoyZNUu+8o0JC1MSJRgUHG/XWW2rCBPXmm2r8eKOCgowKDFRvvKHGjlWvv27Ua68Z9eqrKiBAvfKKevllWYWsmJgY4iwAgDiLlh5ns7OzIyIiKisvt8A4qy9w6oua+lqmeSHTRePsvHlGzZ1rVEuOsxMnVkREzNqxYwdxFgBAnEXLVVJSosPK8uXLFy1aVFFxmThLnJU4+847FfPnL0xMTNS7R3FxMW8WAABxFi1RZWWlzitFRUXLli2LiIjIzt5VUnKeONtm4+y7756Pjc2KiJglWfbEiRN696iQ1x4AAOIsWqDa2tri4uLT38vOzl6wYEFYWFgo2ip59aOiojIzM829QvaQ2hu7YAAAgDiLFuTatWvWibY1eemll0aPHq2HZW+0H4kmyb4hewhvEwAAcRYtWm1tbWVlpXkfbauRm5t7//33y08zzlqPQZNBtqKiguuyAADiLHEWzSkwMDAoKEh93yuB+SsAAABxFi7gzJkzXbp0kZ+yN5rDbBYAAECchcvQV2Rlb+TSLAAAIM7C9eiLsrI3cmkWAAAQZ+GSAgMDZW/k0iwAACDOwiUdP35c9kb5yaYAAADEWbjq7shGAAAAxFkQZwEAAHEWIM4CAADiLOC8KVOmsBEAAABxFgAAAMRZAAAAgDgLOI+bDQAAAHEWrr07shEAAABxFsRZAABAnAWIswAAgDgLOI97ZwEAAHEWAAAAxFkAAACAOAvcFG42AAAAxFm49u7IRgAAAMRZEGcBAABxFiDOAgAA4izgPO6dBQAAxFkAAAAQZwEAAADiLHBTuNkAAAAQZ+HauyMbAQAAEGdBnAUAAMRZgDgLAACIs4DzuHcWAAAQZwEAAECcBQAAAIizwE3hZgMAAECchWvvjmwEAABAnAVxFgAAEGcB4iwAACDOAs7j3lkAAECcBQAAAHEWAAAAIM4CN4WbDQAAAHEWrr07shEAAABxFsRZAABAnAWIswAAgDgLOI97ZwEAAHEWAAAAxFkAAACAOAsAAAAQZwEAAADiLAAAAIizAID/3965QEV15fnaiZYVmnaICTHENrTDNE07XFeu126HOMbYXqaJyzZZtpLFMFm2l6GNxEdEo0R8EaPEgICPGEQeAiJBFNGAEnwQRCihUAERFVGDiKIFARWIIo99/5tNDseqoigVpIDft36LtWuzz6lzNqfO/upwHgAAAKCzoHtJSUmxtLQ0MzNjfetmriayLrg/LgAAAACdBd2Lvb29Wq02ffeCngIAAAAAOgv0oFQqe4WrQWcBAAAAAJ0F+v6ovyB3NX9//7Vr1xppdVI5NjbWysqK/NjFxUXUaDQaJycnqrGxscnMzJS3d3NzUygUHc1fa1Zay1lWVjZu3DianH6Wl5frna20VHqXQXdRTXkxAAAAAACdBU8gpmFhYV5eXk86FWFubk5W19jYuG3bNlFDlpaUlEQFtVptb28vtQ8JCaFmBuavOyv5O06bNi0oKIgKAQEBU6ZM0Ttbqb3eZdCdvykvBgAAAACgs8BYMU1MTHR3d38KCSYcHBymT58eFxdXW1srapRKpXQ4U9p4jPl/ve6s5FPRbJubm6lAP6WTJbRmK73Uuwy68zflxQAAAAAAdBYYK6azZ88ePXp0dXX1U+hsQ0NDfHy8q6vrm2++KTkcVRqYtiN0Z9WRR4p7Mhj2SN1l0J2/KS8GAAAAAKCz4AnEVKVSzZgxw/BUVlZWmZmZpHERERHSHNatW0d+duvWLXNzc1Hj7Ozs5eXV2NhIfuzh4WG8zurOytrauqSkRJSnTZtGDVjrOb5Tp0417JF6l0F3/qa8GAAAAACAzoIn0Fni4sWLQtQ6IiYmZujQoUOGDPHx8ZGmmjVrllKpJNOl34oajUZDGkeVtra2sbGxxuus7qwSExOHtELl8vJyBwcHhUIxfvx4rWuwdNdF7zLozt+UFwMAAAAA0FkAAAAAAACdhc72P5T66EXz712LAQAAAADoLAAAAAAAANBZ0Bs2R3QCAAAAAKCzADoLAAAAAOgsAM+dNWvWoBMAAAAAAJ0FAAAAAADQWQAAAAAAAKCzABgPTjYAAAAAAHQW9O7NEZ0AAAAAAOgsgM4CAAAAADoLAHQWAADA09LS0lJfX19ZWVlRUXELAH1oNJq6ujraVKCzoO+Ac2cBAKBv0NTURKYCXQNGSi1tMNBZAAAAAJgKLS0tkstWVFQUFJzbtSvGz8/PB4A2NgQERGZlqeVG+yzHaKGzAAAAAOhK6uvrJZdNSkretGlTVtapqqqaR49YQwN7+JA9eMDz88/UktXVsdpannv3eO7eZTU1rLqa/fQTT1UVq6xkGg3P7ds8FRXs1i128yYrL+cpK+O5fp2VlrIff+S5do1dvcquXGElJTzFxTyXLrGLF9mFC6yoiOf8eVZYyM6dYwUFLD+fJy+PnT3Lzpxhp0/z5OYytZrl5LDsbB6Viicri2VmspMnWUYGz4kTLD2d/fADz/HjPMeOsaNH2ZEjLDWVJyWF5/BhdugQS07mSUpi333HDh5kBw7w7N/Pk5DA9u1je/ey+HiePXtYXBz79lsWG8t27+aJiWG7drHoaBYVxbNzJ09EBAsPZ2FhLDSUZ8cOFhLCtm/nCQ5m33zDtm1jX3/Ns2ULz+bNbNMmFhTEAgN5AgLYxo3M35/5+bGvvuLZsIF9+SXz9WXr1/N88QXP2rXs88+Zjw9bs4Zn9Wq2ahVbuZKtWMG8vXmWL2effca8vNiyZTyffsqzZAlbvJh5erJFi3g++YQtXMgWLOCZN49n/vzaxYtzfXy2REXtuX79utha6mhTgM6CPgBONgAAgD5AZWWlcNnk5OSoqOi6ugdNTayxkUFnobNCZz/+mHl4UB6sXr07NnaPdIAWOgv6ArgUDAAA+gDCTs6dO7dp06b6eu6y0FnorK7Ozp3LjdbXd1NOTo7YZqCzADoLAADAhHR29+7dKtWp5mYGnYXOdqSzH31E88wPDw+HzgLoLAAAAJPTWT8/v+rqGugsdNawznp41Pr6+kJnQd8B584CAECf0VkfH5+WFnZLU3s46/Jh1ZVDp0oPZd9IzrmVlHMnSV0JnYXOCp2l0KYCnQUAAACAiepsytlKn+NVGzNrws7U7r/4ION60zlNy799kvn8dXaADMM6K9p0t86Kd5F0VryEzkJnAQAAAGBaOltYVBD2Q3FY+pWwE6VhJ2+EZt0KVd1ZFfBljxydFcrY6dHZHtFZHJ2FzoI+Ak42AACAPqazpVfOFNW23Glg8uwO/dgUdFa8/Oij1ebmQ379awtf31jS2QGPQy6bnl7v7LzgV78aMmiQws5u7I4daqGzooGnZ/Abb9jRr4TOWlhYKhRKevmb39iuXp0odHbv3ntOTu4vvmhO9VZWNqSzWu+idXQ2NLTKwcGZ5kP59393/uYbjdBZ0eb991e/+OIQMzOLOXNihc56e2f/67+OHzhQMWiQ8uWXraGzAPQkuBQMAAD6mM6WXM4nna18xKoaWNUjVtn6c/vWJaajs99/X5acfJUKr7xipffo7LRpbvRy9+6ihIRSKvz2t6PkOishPzq7c2cJ1fzzP1sKnXV0nE0v587dauTJBv/xH65UXrkybdmyFCqQ0cp1NiCgzM+PL7CFhZXQ2SFDhtFLf//bODoLAHQWAABAF+vshQvnSWfvNzIp9xqZ74Y1pqOz4mQDUdarswqFUq6tL7wwUK6zBw9WSScbREYW/+d/znrttZFKpZn4rdBZMYekpGYjdVa0j41lMTHNVKCXcp0VJxuIstDZV14ZSeXhw+3ffnvOmjVF0FkAoLMAAAC6TGfzCy8V1bKHTW1poDSzpav9ep3OZmY2a507K5rJz5194w07qlmxIu7QoYZn19ndu5t37+b1gwebGdZZH5/Ct96aZWlpQzVDh46AzgLQk+DcWQAA6GM6ezr/8txlWzy8HgvVmLLO/upXQ1oPu5YKnZ06lZ8qsGZNDOns/v1lb701tSOdFRPu3asJDy+W6+yf//whlefNC5brrJkZbxwSUqqrs2+/zdt/9lkqhQrjx7sa1llxKVhQUHXrGQ5W0FkAAAAAgC7TWdN5jILujbo60lkfn8hXXrF64YWBSqUZ6ewPP9T+138toZpBgxT29g5eXmEd6ezy5TG//vVQmtDBYZpcZ/fsqX733TkvvmhOvxo2bKTQ2YULI196ib/L4MFmWjobHl79H//hKi4FI5fdvr3KsM6++qrNoEHKgQMVb7wx5tNPM6CzAAAAAAB9UGfxGAXoLADPA5xsAAAA0FnoLHQWOgt6MbgUDAAAoLPQWegsdBZAZwEAAEBnobPQWQCgswAAAKCz0FnoLABPBM6dBQCAvqSzABgJdBYAAAAApqiz6ApgDNBZAAAAAEBnAXQWOgtMA5xsAAAA0FkAnYXOgl4MLgUDAADoLIDOQmcBdBYAAAB0FkBnAYDOAgAAMAGdxdAAnYXOgt7EO++8g04AAIC+prNHP2DHPuhcR1rp5zproB/6cIdAZwEAAABgwjp7NZ6xFsYOsFP/zctS6m4YaWn97ehsp+sLnYXOAgAAAOA562wIC/knxloLbHtbjv3RgKVpNBpHR0eFQjFmzJj+rLNUpm60tLS0sLCIiYlhssO3ohl1lJOTk1KptLGxyczMlHqPKqn3xo4dKzme3pZiJm5ubtQYOgtA14CTDQAAoC/q7HZ2dQC7M4AdbQ0bwI4NYAWLDGici4uLt7d3c3Mzzaef62xkZCT1g0qlsrKy0ttRSUlJVFCr1fb29qLS1dXVy8uLpiorK5Ma621Jvw0JCWlsbOzZVYbOgj77GQYAANAXdPa2irsspSCAvzz2ATs3grW0GB4ClEql5Fj9XGd1y1odJR2slXSOKhsaGrQa621pIn0LnQWGaGlpqa+vr6ysrKiouNUboK3xFugHaDSaurq6Fn3jGQCgr+ls63DUmraRiXXw2ZerlUKhaG5uhs4ao7OSuRruPb0tobPA1GlqaiJp6F2WA53tb1JLWyk+qgD0A519Yo2bNGlSSEgIFVJSUqCzWmVra+uSkhJRdnZ29vLyamxsrK6u9vDwEJUTJkyIiIigQmpqqjSV3pbQWWDqx2Ull62oqCgoOLdrV4yfn58PAD3JhoCAyKwstdxocYwWAOgs07lBVVFRkZ2dnVKp9PT07M836tKrs4mJiUNaYa0XeJGnUkfZ2trGxsaKBnl5eTY2NlTp7u4uXeOltyV0Fpg09fX1kssmJSVv2rQpK+tUVVVNYyN79Ig1NPA8fMgePOD5+Weeujqe2lqe+/fZvXs8d++ymhpWXc3z0088VVWsspI+FTx37rDbt3kqKmjnxW7e5Ckv57lxg5WVsevXeUpL2Y8/8ly7xq5eZVeu8NAXS8rly6y4mF26xHPxIrtwgaeoiKewkOfcOZ6CApafz5OXx86eZWfO8Jw+zZOby5OTw5OdzXPqFFOpeLKyWGYmO3mSJyOD58QJlp7OfviBJy2NHT/Oc+wYO3qUHTnCk5rK8/33LCWFHT7Mc+gQS07mSUriOXiQ58ABnsREtn8/T0IC27eP7d3LEx/Ps2cPi4tj337LQzuN3bt5YmLYrl0sOponKoonMpLt3MnoKzQlPJyFhfGEhvKEhPBs384THMzzzTds2zb29dc8W7eyLVt4Nm9mmzaxoCCewECegAC2cSPz9+fx82NffcWzYQOPry/P+vU869axL77gWbuWff457Up41qzhWb2arVrFVq7kWbGCeXvzLF/OPvuMeXnxLFvGs3Qp+/RTtmQJz+LFzNOTZ9EinoULeRYs4Jk/n82bx/Pxx/SzdvHiXB+fLVFRe65fvy420Tra7AAAODoLuoGMjIw333zT9JcTOgv0U1lZKVw2OTk5Kiq6vv5BUxOjQGehsz2osx4ebO5c+vlg9erdsbF7pAO0+MACAJ0FXcuIESOUSuWoUaNUNBxCZ0Gv3pWcO3du06ZN5LLNzQw6C501EZ0VRuvruyknJ+cZ918AAOgs6ANAZ4GhXcnu3btVqlPkstBZ6KxJ6exHH9G75IeHh0NnAYDOAgCdBYZ2JX5+ftXVNdBZ6KwJ6qyHR62vry90FgDorF416drlMX6GJnvZ2fNfsBJNcUZp2glZMq6l1T68D50FPbAraWlhtzS1KarLh1VXDmeXHsq+cUh9K1l9Jzm3EjoLne1BnaU8+/4LAACd7Y2m2ImWDRigUCisrKzCaEh4kqkMr8gTrSa5rNOut91U8xddXCey8LzPzOSZyw8vhs6CntHZlLOVPserNmbWhJ2p3X/xQcb1pnOaln/7JLN/6qz4wD+FzooJobPQWQAAdPY5LExxcbGZmVkXrsUTrWZGaZpw2bz7F/yvhYoC/Xw/4a/QWdAzOltYVBD2Q3FY+pWwE6VhJ2+EZt0KVd1ZFfAldBZHZ6GzAAAT0VmNRuPo6KhQKMaMGSOJF1U6OTkplUobG5tM2qG3Ehsba2VlRZUuLi6iprq6etasWSR/9vb26enpkrq5ubmJu67Kb+O6dOlSamltbX2ahhDZcU3RRmpZVlY2btw4mpx+ltOo9svktFKWlpYWFhYxtE/vTp3NyMiYOnWqbr3oE1qwsWPHyv1N6w61WsuptZqdcqI0bdF5H8+seVS+9/Cud+ZCKniql8xMngGdBT2js6VXzhTVttxpYPLsDv24z+tsaGj26NHjBw2iT73ytdesSWcHPA65bGJi1TvvOFMDysSJzvHxGqGzosH8+cEjRtjRHLSOzu7ZUz916gIzsyEDByr+9V/HfvWVWuisr2+2nd14qqS5WVpaQ2ehswBAZ42E3NTb27u5uVk8IVKqTEpKooJarSZVFZXm5ubkl42Njdton9gKaSuVaVpSPXd3dyE3ISEh1EZL9Vp34wepEBYWNmHCBL0iKArTpk0Loh0ro51qwJQpU6TfRkZG0hupVCpS6m7SWYk5c+ZItzKUFszV1dXLy4uWgYTbwPPDdJfziY7Oks56nvRYnP4PKp+vKogvjqbCkvQ5M/dPhc6CntHZksv5pLOVj1hVA6t6xCpbf27fuqTP6+zQocNa91y3DRyd/b//15Ve+vunrV/Pn6NIRivXWQktnXV0dKPyli1FISGlVBgxYpTQWQsL/o6hobdxdNYUdDYlJcXS0lL8t840L+/o8aUy5Yct9bfnmkJnlUqlrn1SpbQfllzFwcFh+vTpcXFxtTRc/dKM1M3A9qP7kC1qL/0rX68USvOkn1Q20LKbtnx6X1LSiRMn6i5YQ0OD4eXRW36iBU6/dpxcVujs8pPzb9aWCZ2dsedd6CzoGZ29cOE86ez9RiblXiPz3bCmz+vs66+PpM37X/7F/r335kRHF+nVWYWC7yuPHmWpqc2tZ98r5TobF1el99xZMZXECy8MFDr76qv8Hd94w97Rcc7GjUXQ2Z7VWXt7e7Va/ewDT095VXcPltBTYFI6q1AoJCXVq24SVBMfH+/q6io97+opdJbU2XidNdyyWz8p0iNqpXq9HdXlOnu0IMXzF50li/3uyl5ReDfobegs6BmdzS+8VFTLHja1pYHSzJau9uvzOrtrV+G7784aPtyGNvJXXx1hQGePHGk+coT/Sqk0k+tsR5eCian272/WOnc2IKDwnXdmvfYaf8eXXx4Bne1ZnZUOqEBnobPA9HV20qRJIbTXa/2/irS1ODs7e3l5kXpWV1d70B6klXXr1pHR0vzNzc2lZuIMUfnJBh3pLE1IOkizpalEpbW1dQkNSI+3nDZtGr0RFfz9/aVzWJ+nztJab9iwYfLkyVr1EyZMiKAxg7HU1NQn0ln5anZKZtGJv0W8RzpLCisO04rCNL+/QGdBz+js6fzLc5dt8fB6LFTTTy4FO3y4ulUurYTO/upXQ1oPu5YKnXV0/JBebtiQ+uWXfL/w5z+7GqOzkyfPprKnZwy57I4dZWPHTpVfCrZzJ3/Hl16ygs72oM52dHkHjUxraZ07RusqE635dHR1CJNddEK/yqYNkdFGqBo7dqwx41an123ovSBG633ZL4+1HDZsmHSRitYlMs9+1YvuVTjd1I1PejEQ6O06W1RUZGdnR39TT09P+V+fpJMqbW1t6Y8uKmmTphraAKTNkprRliCaSZ+gjj5rYtsjTZROS01MTBzSirwlbZkODg7Ucvz48VpbaXfrrIBWh5Ra2kNKb5eXl0efBfotibv82K38Mi+9yylfzU550PCz3771ThsmOn75lhRy2exLWdBZ0DM6228fozB8uI1CoRw0SGFrO+brrzOEzn72WSSp7QsvDFQqzUhnDxyonjzZVVwKRoW9e6uM0dm4uNr3319CwjpwoOL3v3f4+OMwobOvvcbfkSpHjhzj45MBne3Zo7O6O/SwsDAvWgGD6F5lIp9PR1eHyC862bx58xLqFEY9s4TKRuqs4es29F4Qo/W+EiUlJdKIpfcSGd0FMP6qF93+6aZufNKLgYAJjkF+fn41NTU0DIloDUYiNCRJkcYmaXiSRiiR+noe+WglBixpzJJGLjF4iciHMNquaBQTobFMGs7EiCYNatLQJkY3aYCTj3FSaLCTxjsx5EmjnjT2ieFPRGsQlEKjoYg0JkrDonxwpJw/zxMVlWFn96YYJcVAKUUaMUVo3NQaOuUDqFrdFvlIKgZTEekIkQh9qZTuGqR17yBxc3cRcYt36Ubv8rsJiRw92nZboePH7z37U3Wgs9BZPEYBN+rqFzqbmJgofM4wuleZyOfT6dUh4kCRra0tFezs7KroA2Oczhqu1HtBjNb7FhYWOjs7k3eamZnpnv9n+L+Qxl/1ots/3dSNT3oxEDDBMSg6Olo8aF1rAJKPPkJPxdCjNe7oDjpaI44YbiSb1B1rxEAjOSKNMoMHKyUjFEOM7vgiDS7C8MTIojWs6I4pWgOKGE1oKBGjiXwo+e679nFEaxDRGkF0hw8xdgwdOmLQIOXrr4/y9lZJo8aOHY+NGvIhQ2u80Bos5CPFl1+2DxNaY4TWAKE7OoihgcYFMTSIcUEMCp980j4oaI0INBZERKif/Znn0FnoLHQWOtsvdHb27NmjR4+upk3ZILpXmXTkYXqvDpGOPsbGxpJvGbmExuis7gUxWu87cuTI4ODge/S51eepxuus4atedPunm7rxSS8GAiY4BuXm5gYGBtbXPzAdnZWGmF6tszRwiLFDDBy9WmeXL68LDAw6deoUdBZAZ6Gz0FmjTjZQqVQzZnRyD3Ddq0zk1090enWIICEhYcSIEYdo63kGnZW/r94LYrTed8iQIcXFxSSIBw8elF9Jo3WJzDNe9aLbP93UjU96MRAwKSorK8Wnmz4LUVFRdXUPoLPQWV2dXbGibseOyLi4OLG1SGczQ2cBdBY6C501dBjy4sWLQqQ6QvcqE/n1E51eHSIdOxw2bJjWYdEn1Vn5++q9IEbrfaOjo6mxhYWFt7e3/EoarUtknvGqF93+6aZufNKLgYBJUV9fLz7d9Pfdt29fYGBgbu7pqqoa6Cx0VowIq1bVRESoAwODyGWvX78utpY62hSgswA6C52FzpoIISEhS6mDAOivtLS00PeQW7+Qm5u7c+fOlStX+gDQiq+vb2hoaE5OjrSR0AZDmw10FujXWQBMmR7UWaU+umrmo0ePLqRvY8/lvXqWPrxq4BlpamqSG614dO0tAPRBmwptMM/47zjobF/WWXQFMFn68NFZAIA4RltfXy+dRwudBXpFtq6u7lmOy0JnobMAQGcBAM8JPBkOdOvWBZ2FzgIAnQUAdC/vvPMOOgFAZwF0FkBnAQAAAOgsdBYAk9FZ6WlP0mEbKkiVa9asEZVUQCUqu7VSlOfOnRsaGorPJgDQWdAHdRYnPIFu0lkcnQUmRV5e3h/+8AcYbTeBkw0AdBY8m84e/YAd+6DzTaEV6Kzh3oDlQ2dBHyY3N/d3v/sd+qGb9qvoBACdBU+rs1fjGWth7AA79d+8LKXuhpH7mv65D+p0rbFrhs6CPol0EgKAzgLoLDApnQ1hIf/EWGuBbW/LsT8a2NdoNBpHR0eFQjFmzBjoLJWpMy0tLS0sLMRDNQfIEN3l5OSkVCptbGwyMzOlPqRK6sOxY8dKnzK9LcVM3NzcqDF0FgAAnQUAOgt0dXY7uzqA3RnAjraGDWDHBrCCRQb2NS4uLt7e3s3NzeLe19DZyMhI6g2VSmVlZaW3u5KSkqigVqvt7e1Fpaurq5eXF01VVlYmNdbbkn4bEhLS2NjYr3oYOgtAvwKHvQF0FjyDzt5WcZelFATwl8c+YOdGMH1P4JD7mVKplOwKOqu3rNVd0sFa6QNFlQ0NDVqN9bbsnz0MnQWwLgAAdBYYp7OcltaIYgvr4GlycqlSKBTNzc3QWeN1VjJXw32otyV0FgDT/OwDAKCzwHR09ol34pMmTQoJCaFCSkoKdFZv2drauqSkRJSdnZ29vLwaGxurq6s9PDxE5YQJEyIiIqiQmpoqTaW3JXQWAOhsnweHvQF0FnS7zmrdmqqoqMjOzk6pVHp6euJGXXp1NjExcUgrrPUCL/JU6i5bW9vY2FjRIC8vz8bGhird3d2la7z0toTOAgCdRccCAJ0Fz6qzoPvIyMh488030Q/QWdArwEFE6CyAzgLoLGhnxIgRSqVy1KhRKpUKvQGdBQA6CwB0FkBnAXQWANArwWFvAJ0F0FkAnQUA1gUAgM5CZ43eLIysBM/esUbi6+s7e/bsLlkMmo94lIMuJZrijNK0E7JkXEurfXgfOgvwOQUAQGeBqetspwrbf3bxpHpTpkyR19DLgwcPGj+H7OxsJycnMzMz8ZRgadqn7sPq6mpra+va2lrxMj4+3sHBQalU2tnZJSYmtn+YH3/0bkeVNJ9Ro0ZJc5O7rNOut91U8xddXCey8LzPzOSZyw8vhs4C6Cx4RnDYG0BnAXT2+dHc3Dx06NCqqirxkgr0UnogQqdkZmZaWVmRwja3kpGRsWDBgmfsw61bt3p7e0svXVxciouLheaKO4WxJzymTnOTbhMmkVGaJlw27/4F/2uhokA/30/4K3QWQGcBOhZAZ4FJ66zWATzpp24la71zqpOTk1KptLGxIXXrkx04Z86c4OBgUaaCu7u79Ctxs4Jhw4bFxMTI99Fubm7i5rKTJk2Sjpjq9jP9USwtLS0sLKTJjZnnjBkzSIv1qvO4ceOeQmdpwg8//FCr8kRp2qLzPp5Z86h87+Fd78yFVPBUL5mZPAM6C/oPOIgInQXQWdArdZYZ8RxXqezi4iLOvFSr1fb29n2yA9PT0ydOnCjKpKf0UqtBSUmJ/LBoSEhIY2OjeEli2tGhXGoZGRlJv1WpVFZWVsbPk3xXd54PHjyYPn16WVmZNAm5r5mZ2eTJk4uKigxUEjRn3Vvhks56nvRYnP4PKp+vKogvjqbCkvQ5M/dPhc4CAKCzADoL+o7Okq5JR2378MZDBim6cfjw4VJlYWGhs7MzmSgJot5e6lRndcvGzFN6qJgcd3f327dva1U2NDRs3rx51KhRnVbS22lL/LXj5LJCZ5efnH+ztkzo7Iw970JnAQAAQGdBn9JZ0qM+34dLliwJaoUKUuXIkSODg4Pv3bvXUS8REydOTEhIML6TjZknKbWWIru6uh49elTvu1BL+hsZrtR7dPZoQYrnLzpLFvvdlb2i8G7Q29BZ0H/AyQYAQGdBb9VZa2vrkpISLZfSW+ns7Ozl5UU+VF1d7eHh0Vf7MC8vz8HBYfz48adPn5YqhwwZUlxcTGp48ODBjtSTLHPYsGHx8fHiUrDs7OypU6ca0Flj5jljxgz5acr0ct26dVoL/OGHH5aVldF8/P39HR0dDVSy1ufu6p47m1l04m8R75HOksKKw7SiMM3vL9BZ0K/GRXQCANBZ0Ct1NjExcUgr8r253kqNRkNGq1QqbW1tda+O70vYtSKviY6Opt6wsLDw9vbuSD2JtLS0SZMmUReJG3Vt2LDBgM4aM0+tOxvovf1WTEzM6NGj6ePs5OQkOaLeStbBnQ0eNPzst2+904aJjl++JYVcNvtSFnQWQGcBANBZYOo6C0wZcd9ZcULCs9PRfWefM9BZAJ0FAEBnAXS2H+Hr6+vm5tYls3J3dz906FCPrxF0FpgmOHcWAOgsgM4CAJ0F/Z2UlBRLS0tx/xDTPNzb40vV54+C4zA/dBZAZwF0FoBejL29vVqtfnat6Skl6qb3fT6ro3VdQd9bQQCdhc72jq+qfXWP8Czr5evrO3v27C5ZDJqPeBCGLiWa4ozStBOyZFxLq314HzoL+g9dcrKB/L540NnnvzqdvhF0FjoL+qbOiu+yCoXCwsLiww8/vHjxYt/Yez4FpHpTpkyR19DLgwcPGj+H7OxsJycnMzMzcWcDadqnXkdxKZh08ZbeOxvcvn17/Pjx9I4ODg7S4xX0VnZ0KRi5rNOut91U8xddXCey8LzPzOSZyw8vhs6CfjUudsHIqu8J4f7+/mvXrjUwYWxsrJWVFamwi4uL7nzKysrGjRtHH2f6WV5eLl9a6YHY9Cva/1BBpVKNHTvWmNXUffi21vvqfbC51vsyfQ/rph3XrFmzaE9ob2+fnp7eUbd0tF66jwTX6h8j/4h9cgUBdBY628mHv6qqavPmzcOHDy8sLOyfOtvc3Dx06FDqB6lD6GVHD/rShfaGtD8ihRX3nc3IyFiwYMEzrqPujbp027i7u4uRcvXq1VQ2UMk6uFFXRmmacNm8+xf8r4WKAv18P+Gv0FkAnX3qmYhyWFiYl5eX4anMzc1JdxobG7dt26Y7n2nTpgUFBVEhICBA+sqt9UBs2nuLJ7/QTyobqbO6D9+Wv6/eB5trvW/7t2LZw7rJBWlFaM7ki2L/o/dmhR2tl+5S6faPkf3f91YQQGehs0btwcl16NuqKOv95qr7JVLre6rut1v53nPp0qXU0traWjyk4Nm/1HYtc+bMCQ4OFmUqyEVQ9wu61mpOmjQpMTGxo07Wu+SdznPGjBmkxYaHW/pziAOu9JNmaKBSOLfuYxROlKYtOu/jmTWPyvce3vXOXEgFT/WSmckzoLMAOvssOkv7BPlupCMcHBymT58eFxcn/1eM9FvpAdryh/xpLS3trm1tbVnrbbOl7+Sd6qzhSr0PNtd6X70P69Z94ndHT5o0vF5SWbd/jP860cdWEEBnobNG7cHpUyeuye3om6vul0i931Pl327l+xHx//ewsLAJEyYY+Gwb/6W2ayEdnzhxoiiTngo77+gLutZq6u7gDB8kMGaeZKLyeYrTQugPNHny5KKiIlEp/yBL/x3TW8k6eMgt6aznSQ/xkNvzVQXxxdGs9SG3M/dPhc6C/kOXnDurtUObPXv26NGj6Tu/4akaGhri4+NdXV2lj2dHOivtn3Xlm3absbGxZEVGLqExtqf7YHOt99X7sO6nsD296yWVdfunq3S2160ggM5CZ59YZ/V+c9X9Emn4g613P9LpZ9v4L7VdDhmk6Mbhw4cb/oKutQyGdVa3bMw85SYqH/k2b948atQo3TZSWW+lQOr5dom/dlw825bKy0/Ov1lbJnR2xp53obMAPIvOstaTWWfM6OQfHevWraPPNX0ozM3NRY38SePkqeLp1v7+/nofnS1ISEig3Ven95Y2rLPy99X7YHOt99X7sG6aUPzHSTrGoffB6Z2ul1TW7Z+n1tnevoIAOgudNUpn6Qui9KnT+81V90vkU+gs7T6M11nDLbucJUuWBLUiTkQz8AVdaxkmTpxIw4nxe1hj5klKrVeR5ZZPbcRXC5qVpOB6K1kHR2ePFqR4/qKzZLHfXdkrCu8GvQ2dBeAZdZa4ePGi0JqOmDVrFn2i6cutdN6R/Enj5eXlDg4O9L10/PjxWpeCae2chw0b1unp/oZ1Vv6+eh9srvW+eh/WTRO6uLiICcUa6X1weqfrJZV1+6dDs5FdJtv3VhBAZ6Gzne/a6Ovptm3bSH2k/2Lr/eaq+yVS93uqAZ2lCWlvS7OlqXS/Kz/Fl9ouJy8vj3ZAtPcRZ/ca+IKutQxHjx6lsYRcX1wKlp2dbXjJjZnnjBkzpLOWiQ8//LCsrIwmoW5xdHQUlW5ubqKv6O8+Z84cA5VERkaG7rmzmUUn/hbxHuksKaw4TCsK0/z+Ap0F/Yfe/lSwkJCQpUuX4u8IoLOgn+qs2Bh0b9Sl95ur7pdI3e+pBnRWXOA1efJkmkr3u/JTfKntDuxa6fQLuu4ypKWlTZo0ibpC3Khrw4YNBpbcmHlq3dmAunf06NH0x3JycpJ0ULonF/3UvVGXvJJ1cGeDBw0/++1b77RhouOXb0khl82+lAWdBf1qXOzut1Dqo6tmTjsH+X1puvW9epY+vGoAOgvaddbPz6+mpqalhUlpbuZpampLY2N7Hj1qT0NDWx4+5HnwoD0//9ye+vq21NXx1Na25/59nnv3Hsvduzw1NXyzo5+U6mqen356LFVVPJWV7SHjFblzh4esTCsVFTzkRSI3b7aFBFjkxo32lJW15fr1tpSWtuXHH9tz7Vpbrl5tz5UrPCUlbbl8uT3Fxe25dImHvhGIXLjQnqKi9pw/z0Pjjsi5c+0pKGhPfj7LyKi2srLOzLyXl8coZ8+25cwZntOnH0tublvU6rbk5PBkZ7flhx9qR44clZZWe+oUo6hUbcnKaktmZltOnmxPRkZbTpxoS3p6W3744bGkpfEcP96WY8facvRoW44cofp7a9euhc6C/qmzAADoLDBWZ6Ojo1WqU3KFFdoqqarcUOVKKpmosE+5dArRlORSsklJIiV9lHxR0kShhqSDgwcrJR2Uy59c+OSGJ5SOIkxO7nDC2+S6JvmZ0DK5igkDk5RLki0hWJTUVJ7vv2cpKezwYZ5Dh1hyMk9SEs/BgzwHDvAkJrL9+3kSEti+fWzvXp74eJ49e1hcHPv2W57YWLZ7N09MDNu1i0VH80RF8URGsp07WUQET3g4CwvjCQ3lCQnh2b6dJziY5/33fd96y+3rrxll61a2ZQvP5s1s0yYWFMQTGMgTEMA2bmT+/jx+fuyrr3g2bODx9eVZv5798Y/us2Yd+uILRlm7ln3+OfPx4Vmzhmf1arZqFVu5kmfFCubtzbN8OfvsM+blxbNsGc/SpezTT9mSJTyLFzNPT55Fi3gWLuRZsIBn/nw2bx7Pxx8zDw82dy7PRx/RKqt37NgBnQXQWXQsANBZYEhnc3NzAwMD6+sfmJrOSgc4obPG6+w337Bt21iX6Cxl3TrWgzq7fHldYGDQ6dOnobPABOnt585CZwF0FvQRKisrhSgkJCRERUWR0UJnobMmorMrVtTt2BH57bffik1UOnkaAACdBQA6C9qpr68XrlBeXr5v377AwMDc3NNVVTXQWehsD+rsqlU14eHqwMCguLi469evi020jjY7AEA/AIe9AXQWPBktLS0ajebWL+Tm5u7cudPX19cHgJ6DtkDaDnNycqQtk7ZS2lbxgQWwLgAAdBbooampSW60AJgatH3SVoqPKjDBcRGdAAB0FpgKLS0t9fX10nm0AJiOyNbV1eG4LIDO9itw2BtAZwEAAADoLDoWAOgsAAAAYBAcRITOAugsAAAAAAB0FkBnAQAAANCHwGFvAJ0FAAAAYF0AAOgsAAAA0Nm4iE4AADoLAAAAQGfBY3h5eaETAHQWAAAA6F5+/PFHGhbpJ7oCHQugswAAAEDvY9GiRTQsenp6oivQsQA6CwAAAPQyKioqXn75ZRoW6SeV0SHoWACdBQAAAHoTixYt8vT0pGFRFNAh6FgAnQUAAAB6DeIIIv387W9/K5XRLV3Yse+88w46FkBnAQAAgO5COnAo7myA44joWACdBQAA0GtoaWmpr6+vrKysqKi41S/Jz89/6aWX6CeVaVjUqgFd27FDhw69evUqbXX46AHoLAAAgC6gqalJo9H0c+v6xz/+MWfOHFEW1qVVCbq8Y2mro20PH0AAnQUAAPBMtLS0SC5bUVFRUHBu164YPz8/HwC6mlWr1gcERGZlqfPz819//fVr167RtodjtAA6CwAA4Jmor6+XXDYpKXnTpk1ZWaeqqmoePWKUhgaeBw94fv6Zp66Op7aW5/59du8eu3uXp6aGVVezn37iqapilZVMo+G5c4fdvs0qKnhu3WI3b/KUl7MbN1hZGc/166y0lP34I8+1a+zqVXblCk9JCU9xMc+lSzwXLvAUFfGcP88KC9m5czwFBSw/n+Xl8Zw9y86cYadP8+Tm8qjVLCeHZWfznDrFVCqWlcWTmclOnmQZGTwnTrD0dPbDDzxpaez4cZ5jx9jRo+zIEZ7UVPb99ywlhefwYXboEEtO5klK4jl4kOfAAZ79+3kSEnj27WN797L4eJ49e0sD01IAABXfSURBVFhcHPv2W57YWLZ7N4uJ4dm1i0VHs6gonshItnMnT0QECw9nYWE8oaFsxw4WEsKzfTsLDub55hu2bRvP11+zrVvZli08mzezTZtYUBBPYCALCGAbN/L4+zM/P/bVVzwbNvD4+vKsX8/zxRc8a9fyfP458/Fha9bwrF7NVq1iK1fyrFjBvL3Z8uU8n33GvLx4li1jS5eyTz/lWbKELV7MPD15Fi1in3zCFi7kWbCAzZ/P5s3j+fhjKtcuXpzr47MlKmrP5cuXxYZXR9sTANBZAAAAT01lZaVw2eTk5Kio6Pr6B01NrLGRQWehs12us5S5c5mHx4PVq3fHxu4ROquhrQQA6CwAAICnRijFuXPnNm3aRC7b3Mygs9DZbtVZYbS+vptycnLE5oePIYDOAgAAeFad3b17t0p1ilwWOgudfQ46+9FHNP/88PBw6CyAzgIAAOganfXz86uuroHOQmefm856eNT6+vpCZwF0FgAAQNforI+PT0sLu6WpTVFdPqy6cuhU6aHsG4fUt5LVd5JzK6Gz0Nku11kKbXXQWQCdBQAA0JU6m3K20ud41cbMmrAztfsvPsi43nRO0/Jvn2Q+Z50d0Mpz0FnxRoZ1VrTpbp0V7yLprHgJnQUAOgsAAODJdLawqCDsh+Kw9CthJ0rDTt4IzboVqrqzKuDLvqqzxhyd7RGdxdFZAKCzAAAAnkZnS6+cKaptudPA5Nkd+nH36ezBg9ljx44fNEgxeLBy+HBr0tkBj0Mum5NT9e67ztSA4uTkfPKkRuisaLByZfDIkXY0h/DwDHr56qvDc3Ob1ermYcNG0MuoKLWRR2dFedas1b/61RBzc4sVK2JJZ7UWhlz2wIH6995bYGY2hN7xd78bGxioFjorGsydG/yb39gNHKgQOjtkiKVCoaSXr79u++mniUJnIyLu/fnP7kqlOdUPG2ZDOqv1LlpHZ4OCqsaOdR40SEmhgr+/RuisaDNlymqlcoiZmcXf/x4rdHbRoux/+ZfxNHNq/9JL1tBZAJ0FAADQj3S25HI+6WzlI1bVwKoescrWn9u3Luk+nX3llWE0Bp0+fdvA0dlp01xbxTRtx44UKpDRynVWIi+P/a//NY4K69bFbN58iAr/+39PMP5kA1Hes6ds9+6rVHj5ZSu9R2f/8hc3ehkcXBQRUUqFN94YJddZCfnR2S1bSqiG1Fbo7DvvzKaXf//7ViNPNvj3f+erv3hx2sKFfPX/z/9xluvsF1+UrVnDF/if/9lK6Oyvf8279PPPb+PoLIDOAgAA6Hc6e+HCedLZ+41Myr1G5rthTffp7IgRI2kM+v3v7f/rv+YcOVKkV2cHD1bSy0uXSGGbqUAv5TqbkVElnWzg5xdPNW++OX78+ClU2Lbt6JPqrDjZQJT16qxCoZRr6wsvDJTr7K5dVdLJBlu3Fr/zzqxXXx05eLCZ+K3QWTGHmJhmI3V20CDevvVMA7769FKus+JkA1EWOvvyy7xLrazsHRzmLF1aBJ0F0FkAAAD9SGfzCy8V1bKHTW1poDSzpav9uk9njx4tnDFjlrW1TauBjTCgsxcuNF+4wH/14otmcp3VOnfW2tpW1P/+928+0aVgT6SzycnNWufOimbyc2eHD7ejGk/PuNjYhmfXWXJZMloqKBRmhnV22bLCP/1p1iuv8C61sBgBnQXQWQAAAP1IZ0/nX567bIuH12Ohmu6+FKygoLr1tFcrobPm5kPoZXp6qdDZ9977kF6Gh6eGhqZSYepUVwM6+9ln20S9r29cl+ismdmQ1sOupUJn//M/+akCn34aQy4bGVn2pz9N7UhnxYTh4ZrNm4vlOjthAl8dN7dguc6++CJvHBBQqquzDg68/SefpFKo8Kc/uRrWWXEp2Pr11a1nOFhBZwF0FgAAQD/S2ef/GAVra5vBg5WDBins7cfEx2cInfXziyS1pYHpxRfNSGdzc6v/+ldXcSkYFbKyqgzorI9PBFVaW9s+6Y26OtLZpUsjX37Z6oUXBg4ebEY6u39/7d/+tmToUCta5j/8wWHhwrCOdPaTT2LMzYfShGPHTpPrbFhY9eTJc5RKc/rVq6+OFDr7j39EWli0vYuWzm7eXD1unKu4FIwKGzdWGdbZV16xoZYDByp+85sx8+ZlQGcBdBYAAAB0tjc9FWzkSP4v/uXLg/EYBVwKBqCzAAAAoLO9TGc3bIhrveHXSLW6WdJZcVhXodAOdBY6C6CzAAAAoLN4yC10FjoLoLMAAACgs9BZ6CwA0FkAAADQWegsdBZAZwEAAPRfnQXg+QOdBdBZAAAAXaaz6ArwnIHOAugsAAAA6CyAzgIAnQUAAOgsdBZAZwF0FgAAAHQWAOgsgM4CAACAzgLoLADQWQAAAD2kszSgoEsBdBZAZwEAAPSczh79gB37oPNhoxXobFeOxB10aR/uW+gsgM4CAADoap29Gs9YC2MH2Kn/5mUpdTeMVCvo7LMMxs/YADoLoLPQWQAAgM6SzoawkH9irLXAtrfl2B8NqJVGo3F0dFQoFGPGjIHOdonOUpn+IpaWlhYWFjExMUx2+FY0oz53cnJSKpU2NjaZmZnSH4Iq6Q8xduxYaVjX21LMxM3NjRpDZwF0FgAAQB/T2e3s6gB2ZwA72ho2gB0bwAoWGXAvFxcXb2/v5uZmmg90tqt0NjIykrpUpVJZWVnp7fOkpCQqqNVqe3t7Uenq6url5UVTlZWVSY31tqTfhoSENDY29uwqQ2cBdBYAAEBX6+xtFXdZSkEAf3nsA3ZuBGtpMexeSqVSEiPobFfprG5Zq8+lg7XSCE6VDQ0NWo31tjSRPxN0FkBnAQAAdLXOclpaI4otel1Wy4cUCkVzczN09jnrrGSuhv8QeltCZwF0FgAAQB/W2Sd2r0mTJoWEhFAhJSUFOtt9OmttbV1SUiLKzs7OXl5ejY2N1dXVHh4eonLChAkRERFUSE1NlabS2xI6C6CzAAAA+rXOat1VqqioyM7OTqlUenp6QmeffiSWdalenU1MTBzSCmu9wIs8lfrc1tY2NjZWNMjLy7OxsaFKd3d36RovvS2hswA6CwAAoF/rLDBxMjIy3nzzTdNfTugsgM4CAACAzoLHGDFihFKpHDVqlEqlgs4C6CwAAADoLADQWQCdBQAAAJ0FADoLoLMAAAD6ks5296VIuCLtqSnRFGeUpp2QJeNaWu3D+1rNThTcyCi8cbKw/G7dQ+gsgM4CAADo9TrbI/qodTeAXq2zBtblea4UuazTrrfdVPMXXVwnsvC8z8zkmcsPL9ZqOSfh8rLUGyuPl+eVaHTnEx38PyInUr+BzgLoLAAAAOjsE79vbzw62+kyP4eVyihNEy6bd/+C/7VQUaCf7yf8VatlcvrJE+duZJwrLyu7pDuf7w58U3rnAeXbnctaOngSB3QWQGcBAAD0mM7GxsZaWVkplUoXFxcmO7IofKusrGzcuHEKhYJ+lpeXy1XMzc1N3A9VMjONRuPk5ESzsrGxyczM1Dt/Iw2PZuXo6EjzHzNmTG/XWSrTX8TS0tLCwiImJka3k/X2m6ikHhg7dqw0rOttqfXnkDhRmrbovI9n1jwq33t41ztzIRU81UtmJs/QWtqK8vxHLYxyZo/r5SPLtX67Oy5Sc/dR5d2GAL+FpVdzqab0Sq4U6CyAzgIAAOhhnTU3NydPbWxs3LZtm66KTZs2LSgoiAoBAQFTpkyRGoSEhNAkWu1JWJOSkqigVqvt7e07mr8xCkiz8vb2bm5uptXpAzobGRlJ66JSqcjs9a6sbr+5urp6eXnRVPSNwnAPa/055DrredJjcfo/qHy+qiC+OJoKS9LnzNw/Vavl9evn6ptYXROryA+tyA9rfzByKyFRCQ2Pmig7ovdHB//PpYv5Kd9tLb3zMyU62A06C6CzAAAAelhnHRwcpk+fHhcXV1tbq2taSqWSjIoK9JPKug3kL6mBdNBRGol052+MAtKsdHW59+qsbllrZXX7jSobGhqM6eGO+if92nFyWaGzy0/Ov1lbJnR2xp53tVpevlZU84hRbuZ8eTNnA3v8jIKcs5dErvzIVTVw2874vWE3qx5SAvwWQmcBdBYAAEAP6yw5U3x8vKurq/ToqY501szMrFOdlQzMwPyNUUCFQiHet5/orG6/6e0BvS076p+jBSmev+gsWex3V/aKwrtBb2u1zLt8sfD0AfWOtyvPfF559nN16MTy/EQDaxe+K67uQSNl8Yo10FkAnQUAANDDOrtu3ToyJJrK3Nxc1FhbW5eUlIjytGnTqAEV/P39p06dalhnnZ2dvby8Ghsbq6urPTw8Opq/MQo4adKkkJAQKqSkpPRJnZV3st5+mzBhQkREBBVSU1MN93BH/ZNZdOJvEe+RzpLCisO0ojDN7y9aLcNCg8LDNu31fLnxRz/KPs9XDK/d7E8C/t8iHipAZwF0FgAAQA/r7KxZs5RKpZWVlbhKiUhMTBzSCpXLy8sdHBwUCsX48eO1LgXTVTSNRkO+RXOztbWNjY3taP4djl6ym1sVFRXZ2dnRhJ6enr39Rl16dVbeyXr7LS8vz8bGhird3d2la7z0tuyofx40/Oy3b73ThomOX74lhVw2+1JWR0t+NvbvZ2JnPd1aQ2cBdBYAAEDP6CwwcTIyMjo9T8MUgM4C6CwAAIB+obNKfeAPp5cRI0ZQ54waNUqlUkFnAXQWAAAAdBYA6CyAzgIAAIDOAgCdBdBZAAAA0Fnd0aufvOnzpERTnFGadkKWjGtptQ/vazU7UXAjo/DGycLyu3UPobMAOgsAAKCX6azWZfjPU/uej00aWMHuW6+e6lItl3Xa9babav6ii+tEFp73mZk8c/nhxVot5yRcXpZ6Y+Xx8rwSje58ooP/R+RE6jfQWQCdBQAAYHI6a4xa9WqdNfBG3bcAPdWlcjJK04TL5t2/4H8tVBTo5/sJf9VqmZx+8sS5GxnnysvKLunO57sD35TeeUD5dueylscfGAadBdBZAAAAJqezVKbJLS0tLSwsxJ1iB8hgrbc+dXJyUiqVNjY2mZmZ8jm4ublJd0gVV+UPGzZMut1sdXX1rFmzzMzM7O3t09PTtWYrLUNZWdm4ceNoPvRTfqdbraUiYmNjrays6F1cXFyMX0FafkdHR5r/mDFjno/OPl2XikpazrFjx0rDupGdLzhRmrbovI9n1jwq33t41zuTP5DWU71kZvIMraWtKM9/1MIoZ/a4Xj6yXOu3u+MiNXcfVd5tCPBbWHo1l2pKr+RKgc4C6CwAAACT09nIyMjm5maVSkWyqNuA3DEpKYkKarWaxFRqEBIS0tjYqDXnkpIS8aQA4Vvbtm2jOZOTubu7sw6eLzBt2rSgoCAqBAQETJkyxcBSmZubk+/Sm9JsjV9BWn5vb2+aFXXUc9PZp+hSV1dXLy8vmor8Xmr8RJ1POut50kM85PZ8VUF8cTRrfcjtzP1TtVpev36uvonVNbGK/NCK/DDGHjsEGxKV0PCoibIjen908P9cupif8t3W0js/U6KD3aCzADoLAADA5HRWtyyvVCqV0pFFabjR8sLCwkJnZ2dSNzMzM+lXNCHJWafvKzWjn9ItafW2dHBwmD59elxcXG1trfErSPOUzO+56exTdClVNjQ06HZOp50vkX7tuHi2LZWXn5x/s7ZM6OyMPe9qtbx8rajmEaPczPnyZs4G9vgZBTlnL4lc+ZGrauC2nfF7w25WPaQE+C2EzgLoLAAAgN6ns5Jm6Z2KGDlyZHBw8L179/R6qvE6SzZsoCUtRnx8vKura6cPzZJPrlAopMUwHZ3V7VK9y2lM50scLUjx/EVnyWK/u7JXFN4NelurZd7li4WnD6h3vF155vPKs5+rQyeW5ycaWLvwXXF1Dxopi1esgc4C6CwAAIBeoLPW1tYlJSWi7Ozs7OXl1djYWF1d7eHhodeohgwZUlxcTDZ28OBB6Vc0oThzVDrZQD5b+ckG69ato4K/v//UqVMNLBU1I7ej9TU3Nzd+BSdNmhQSEkKFlJSUHtTZTrt0woQJERERVEhNTZX3YaedL5FZdOJvEe+RzpLCisO0ojDN7y9aLcNCg8LDNu31fLnxRz/KPs9XDK/d7E8C/t8iHipAZwF0FgAAQA/rrNZdpfS6V2Ji4pBWhIySVCmVSltb29jYWL1GFR0dTY0tLCy8vb2lX9GELi4uYkLhtfLZSs3Ky8sdHBwUCsX48ePll4LpLtWsWbNoblZWVtLFYcasYFFRkZ2dHU3o6en5fG7U9XRdmpeXZ2NjQ5Wk/tI1XsZ0vsSDhp/99q132jDR8cu3pJDLZl/K6mjJz8b+/UzsrKdba+gsgM4CAADoMp318/OrqalpaWEizc1taWriaWxsz6NH7Wlo4Hn4sC0PHrTl55/bU1/PU1fXltratty/35Z799pz9y5PTU17qqt5fvqpPVVVbamsbItGw3PnTltu334sFRU8pEwiN2+2hbyXcuNGe8rK2nL9eltKS9vy44/tuXaN5+rV9ly5wlNSwnP58mMpLm7LpUs8Fy+25cKF9hQVteX8+bYUFvKcO9eWgoL25Oe3JS+vLWfPtuXMGZ7Tp1loaMbvf/8mFXJz26JWtyUnhyc7uz2nTrVHpeLJympLZmZbTp5sT0ZGW06c4ElPb8sPP7QnLa0tx4/zHDvWnqNHeY4cofp7vr6+0FkAnQUAANA1OhsdHa1SnZIUVtJWIaxySZVbqZBRyUEl7xSuKVmm3CkllZT0UVijZIpadih3Qbn8CeeTbE/SO2F1ZHKSzAmHk9RN0jWyNIVCqRu5hAnxoqSmsu+/ZykpPIcPs0OHWHIyT1ISz8GDPAcO8Ozfz5OQwLNvH9u7l8XH8+zZw+Li2Lff8sTGst27WUwMz65dLDqaRUXxREaynTt5IiJYeDgLC+MJDWU7drCQEJ7t21lwMM8337Bt23i+/ppt3cq2bOHZvJm99NKIQYOUr702auFCVUAA27iRx9+f+fmxr77i2bCBx9eXZ/16ni++4Fm7lufzz5mPD1uzhmf1arZqFVu5kmfFCubtzZYv5/nsM+blxbNsGVu6lH36Kc+SJWzxYubpybNoEfvkE7ZwIc+CBWz+fDZvHs/HH/PMncvz0Ue0jurw8HDoLIDOAgAA6Bqdzc3NDQwMrK9/0K90VjrWKI4ySkcWe6/ObtrEgoJ4AgOZKevs8uV1gYFBp06dgs4C6CwAAIBnpbKyUihFQkJCVFQUGS10FjrbrTq7YkXdjh2RcXFxYsPTaDT4GALoLAAAgKenvr5eWEV5efm+ffsCAwNzc09XVdVAZ6GzXa6zq1bVhIerAwODyGWvX78uNrw62p4AgM4CAAB4alpaWjQaza1fyM3N3blzp6+vrw8AXQ1tV6GhoTk5OdL2Rttey+OPYAAAOgsAAOCJaWpqkhstAM8H2upo28MHEEBnAQAAdAEtLS319fXSebQAdLfI1tXV4bgsgM4CAAAAAAAg09kBAAAAAAAA9E7+P2pN4nXrOqFuAAAAAElFTkSuQmCC;" vertex="1" parent="1">
          <mxGeometry x="75.08" y="-750" width="700.85" height="450" as="geometry" />
        </mxCell>
        <mxCell id="NwccE2FBPC4-gikAn3eB-28" value="STORY DB" style="text;html=1;align=center;verticalAlign=middle;whiteSpace=wrap;rounded=0;fontStyle=1;fontSize=17;" vertex="1" parent="1">
          <mxGeometry x="373.01" y="-820" width="105" height="30" as="geometry" />
        </mxCell>
      </root>
    </mxGraphModel>
  </diagram>
</mxfile>
